<svg xmlns="http://www.w3.org/2000/svg" style="display:none">
  <symbol id="icon-hand-holding-dollar" viewBox="0 0 576 512">
    <path d="M312 24V34.5c6.4 1.2 12.6 2.7 18.2 4.2c12.8 3.4 20.4 16.6 17 29.4s-16.6 20.4-29.4 17c-10.9-2.9-21.1-4.9-30.2-5c-7.3-.1-14.7 1.7-19.4 4.4c-2.1 1.3-3.1 2.4-3.5 3c-.3 .5-.7 1.2-.7 2.8c0 .3 0 .5 0 .6c.2 .2 .9 1.2 3.3 2.6c5.8 3.5 14.4 6.2 27.4 10.1l.9 .3c11.1 3.3 25.9 7.8 37.9 15.3c13.7 8.6 26.1 22.9 26.4 44.9c.3 22.5-11.4 38.9-26.7 48.5c-6.7 4.1-13.9 7-21.3 8.8V232c0 13.3-10.7 24-24 24s-24-10.7-24-24V220.6c-9.5-2.3-18.2-5.3-25.6-7.8c-2.1-.7-4.1-1.4-6-2c-12.6-4.2-19.4-17.8-15.2-30.4s17.8-19.4 30.4-15.2c2.6 .9 5 1.7 7.3 2.5c13.6 4.6 23.4 7.9 33.9 8.3c8 .3 15.1-1.6 19.2-4.1c1.9-1.2 2.8-2.2 3.2-2.9c.4-.6 .9-1.8 .8-4.1l0-.2c0-1 0-2.1-4-4.6c-5.7-3.6-14.3-6.4-27.1-10.3l-1.9-.6c-10.8-3.2-25-7.5-36.4-14.4c-13.5-8.1-26.5-22-26.6-44.1c-.1-22.9 12.9-38.6 27.7-47.4c6.4-3.8 13.3-6.4 20.2-8.2V24c0-13.3 10.7-24 24-24s24 10.7 24 24zM568.2 336.3c13.1 17.8 9.3 42.8-8.5 55.9L433.1 485.5c-23.4 17.2-51.6 26.5-80.7 26.5H192 32c-17.7 0-32-14.3-32-32V416c0-17.7 14.3-32 32-32H68.8l44.9-36c22.7-18.2 50.9-28 80-28H272h16 64c17.7 0 32 14.3 32 32s-14.3 32-32 32H288 272c-8.8 0-16 7.2-16 16s7.2 16 16 16H392.6l119.7-88.2c17.8-13.1 42.8-9.3 55.9 8.5zM193.6 384l0 0-.9 0c.3 0 .6 0 .9 0z"/>
  </symbol>
  <symbol id="icon-gift" viewBox="0 0 512 512">
    <path d="M190.5 68.8L225.3 128H224 152c-22.1 0-40-17.9-40-40s17.9-40 40-40h2.2c14.9 0 28.8 7.9 36.3 20.8zM64 88c0 14.4 3.5 28 9.6 40H32c-17.7 0-32 14.3-32 32v64c0 17.7 14.3 32 32 32H480c17.7 0 32-14.3 32-32V160c0-17.7-14.3-32-32-32H438.4c6.1-12 9.6-25.6 9.6-40c0-48.6-39.4-88-88-88h-2.2c-31.9 0-61.5 16.9-77.7 44.4L256 85.5l-24.1-41C215.7 16.9 186.1 0 154.2 0H152C103.4 0 64 39.4 64 88zm336 0c0 22.1-17.9 40-40 40H288h-1.3l34.8-59.2C329.1 55.9 342.9 48 357.8 48H360c22.1 0 40 17.9 40 40zM32 288V464c0 26.5 21.5 48 48 48H224V288H32zM288 512H432c26.5 0 48-21.5 48-48V288H288V512z"/>
  </symbol>
  <symbol id="icon-bolt-lightning" viewBox="0 0 384 512">
    <path d="M0 256L28.5 28c2-16 15.6-28 31.8-28H228.9c15 0 27.1 12.1 27.1 27.1c0 3.2-.6 6.5-1.7 9.5L208 160H347.3c20.2 0 36.7 16.4 36.7 36.7c0 7.4-2.2 14.6-6.4 20.7l-192.2 281c-5.9 8.6-15.6 13.7-25.9 13.7h-2.9c-15.7 0-28.5-12.8-28.5-28.5c0-2.3 .3-4.6 .9-6.9L176 288H32c-17.7 0-32-14.3-32-32z"/>
  </symbol>
  <symbol id="icon-broom" viewBox="0 0 576 512">
    <path d="M566.6 54.6c12.5-12.5 12.5-32.8 0-45.3s-32.8-12.5-45.3 0l-192 192-34.7-34.7c-4.2-4.2-10-6.6-16-6.6c-12.5 0-22.6 10.1-22.6 22.6v29.1L364.3 320h29.1c12.5 0 22.6-10.1 22.6-22.6c0-6-2.4-11.8-6.6-16l-34.7-34.7 192-192zM341.1 353.4L222.6 234.9c-42.7-3.7-85.2 11.7-115.8 42.3l-8 8C76.5 307.5 64 337.7 64 369.2c0 6.8 7.1 11.2 13.2 8.2l51.1-25.5c5-2.5 9.5 4.1 5.4 7.9L7.3 473.4C2.7 477.6 0 483.6 0 489.9C0 502.1 9.9 512 22.1 512l173.3 0c38.8 0 75.9-15.4 103.4-42.8c30.6-30.6 45.9-73.1 42.3-115.8z"/>
  </symbol>
  <symbol id="icon-sparkles" viewBox="0 0 512 512">
    <path d="M327.5 85.2c-4.5 1.7-7.5 6-7.5 10.8s3 9.1 7.5 10.8L384 128l21.2 56.5c1.7 4.5 6 7.5 10.8 7.5s9.1-3 10.8-7.5L448 128l56.5-21.2c4.5-1.7 7.5-6 7.5-10.8s-3-9.1-7.5-10.8L448 64 426.8 7.5C425.1 3 420.8 0 416 0s-9.1 3-10.8 7.5L384 64 327.5 85.2zM205.1 73.3c-2.6-5.7-8.3-9.3-14.5-9.3s-11.9 3.6-14.5 9.3L123.3 187.3 9.3 240C3.6 242.6 0 248.3 0 254.6s3.6 11.9 9.3 14.5l114.1 52.7L176 435.8c2.6 5.7 8.3 9.3 14.5 9.3s11.9-3.6 14.5-9.3l52.7-114.1 114.1-52.7c5.7-2.6 9.3-8.3 9.3-14.5s-3.6-11.9-9.3-14.5L257.8 187.3 205.1 73.3zM384 384l-56.5 21.2c-4.5 1.7-7.5 6-7.5 10.8s3 9.1 7.5 10.8L384 448l21.2 56.5c1.7 4.5 6 7.5 10.8 7.5s9.1-3 10.8-7.5L448 448l56.5-21.2c4.5-1.7 7.5-6 7.5-10.8s-3-9.1-7.5-10.8L448 384l-21.2-56.5c-1.7-4.5-6-7.5-10.8-7.5s-9.1 3-10.8 7.5L384 384z"/>
  </symbol>
  <symbol id="icon-couch" viewBox="0 0 640 512">
    <path d="M64 160C64 89.3 121.3 32 192 32H448c70.7 0 128 57.3 128 128v33.6c-36.5 7.4-64 39.7-64 78.4v48H128V272c0-38.7-27.5-71-64-78.4V160zM544 272c0-20.9 13.4-38.7 32-45.3c5-1.8 10.4-2.7 16-2.7c26.5 0 48 21.5 48 48V448c0 17.7-14.3 32-32 32H576c-17.7 0-32-14.3-32-32H96c0 17.7-14.3 32-32 32H32c-17.7 0-32-14.3-32-32V272c0-26.5 21.5-48 48-48c5.6 0 11 1 16 2.7c18.6 6.6 32 24.4 32 45.3v48 32h32H512h32V320 272z"/>
  </symbol>
  <symbol id="icon-door-open" viewBox="0 0 576 512">
    <path d="M320 32c0-9.9-4.5-19.2-12.3-25.2S289.8-1.4 280.2 1l-179.9 45C79 51.3 64 70.5 64 92.5V448H32c-17.7 0-32 14.3-32 32s14.3 32 32 32H96 288h32V480 32zM256 256c0 17.7-10.7 32-24 32s-24-14.3-24-32s10.7-32 24-32s24 14.3 24 32zm96-128h96V480c0 17.7 14.3 32 32 32h64c17.7 0 32-14.3 32-32s-14.3-32-32-32H512V128c0-35.3-28.7-64-64-64H352v64z"/>
  </symbol>
  <symbol id="icon-kitchen-set" viewBox="0 0 576 512">
    <path d="M240 144A96 96 0 1 0 48 144a96 96 0 1 0 192 0zm44.4 32C269.9 240.1 212.5 288 144 288C64.5 288 0 223.5 0 144S64.5 0 144 0c68.5 0 125.9 47.9 140.4 112h71.8c8.8-9.8 21.6-16 35.8-16H496c26.5 0 48 21.5 48 48s-21.5 48-48 48H392c-14.2 0-27-6.2-35.8-16H284.4zM144 80a64 64 0 1 1 0 128 64 64 0 1 1 0-128zM400 240c13.3 0 24 10.7 24 24v8h96c13.3 0 24 10.7 24 24s-10.7 24-24 24H280c-13.3 0-24-10.7-24-24s10.7-24 24-24h96v-8c0-13.3 10.7-24 24-24zM288 464V352H512V464c0 26.5-21.5 48-48 48H336c-26.5 0-48-21.5-48-48zM48 320h80 16 32H304c26.5 0 48 21.5 48 48V464c0 44.2-35.8 80-80 80H336c44.2 0 80-35.8 80-80V352 320c0-44.2-35.8-80-80-80H256h-32-16H128c-44.2 0-80 35.8-80 80v16V480c0 17.7 14.3 32 32 32h96c17.7 0 32-14.3 32-32V320H160 128 48z"/>
  </symbol>
  <symbol id="icon-bath" viewBox="0 0 512 512">
    <path d="M96 77.3c0-7.3 5.9-13.3 13.3-13.3c3.5 0 6.9 1.4 9.4 3.9l14.9 14.9C130 91.8 128 101.7 128 112c0 19.9 7.2 38 19.2 52c-5.3 9.2-4 21.1 3.8 29c9.4 9.4 24.6 9.4 33.9 0L289 89c9.4-9.4 9.4-24.6 0-33.9c-7.9-7.9-19.8-9.1-29-3.8C246 39.2 227.9 32 208 32c-10.3 0-20.2 2-29.2 5.5L163.9 22.6C149.4 8.1 129.7 0 109.3 0C66.6 0 32 34.6 32 77.3V256c-17.7 0-32 14.3-32 32s14.3 32 32 32H480c17.7 0 32-14.3 32-32s-14.3-32-32-32H96V77.3zM32 352v16c0 28.4 12.4 54 32 71.6V480c0 17.7 14.3 32 32 32s32-14.3 32-32V464H384v16c0 17.7 14.3 32 32 32s32-14.3 32-32V439.6c19.6-17.6 32-43.1 32-71.6V352H32z"/>
  </symbol>
  <symbol id="icon-bolt" viewBox="0 0 448 512">
    <path d="M349.4 44.6c5.9-13.7 1.5-29.7-10.6-38.5s-28.6-8-39.9 1.8l-256 224c-10 8.8-13.6 22.9-8.9 35.3S50.7 288 64 288H175.5L98.6 467.4c-5.9 13.7-1.5 29.7 10.6 38.5s28.6 8 39.9-1.8l256-224c10-8.8 13.6-22.9 8.9-35.3s-16.6-20.7-30-20.7H272.5L349.4 44.6z"/>
  </symbol>
  <symbol id="icon-trophy" viewBox="0 0 576 512">
    <path d="M400 0H176c-26.5 0-48.1 21.8-47.1 48.2c.2 5.3 .4 10.6 .7 15.8H24C10.7 64 0 74.7 0 88c0 92.6 33.5 157 78.5 200.7c44.3 43.1 98.3 64.8 138.1 75.8c23.4 6.5 39.4 26 39.4 45.6c0 20.9-17 37.9-37.9 37.9H192c-17.7 0-32 14.3-32 32s14.3 32 32 32H384c17.7 0 32-14.3 32-32s-14.3-32-32-32H358.9C337.9 448 320 430.1 320 409.1c0-19.6 15.9-39.2 39.4-45.6c39.9-11 93.9-32.7 138.2-75.8C542.5 245 576 180.6 576 88c0-13.3-10.7-24-24-24H446.4c.3-5.2 .5-10.4 .7-15.8C448.1 21.8 426.5 0 400 0zM48.9 112h84.4c9.1 90.1 29.2 150.3 51.9 190.6c-24.9-11-50.8-26.5-73.2-48.3c-32-31.1-58-76-63-142.3zM464.1 254.3c-22.4 21.8-48.3 37.3-73.2 48.3c22.7-40.3 42.8-100.5 51.9-190.6h84.4c-5.1 66.3-31.1 111.2-63 142.3z"/>
  </symbol>
  <symbol id="icon-shield-halved" viewBox="0 0 512 512">
    <path d="M256 0c4.6 0 9.2 1 13.4 2.9L457.7 82.8c22 9.3 38.4 31 38.3 57.2c-.5 99.2-41.3 280.7-213.6 363.2c-16.7 8-36.1 8-52.8 0C57.3 420.7 16.5 239.2 16 140c-.1-26.2 16.3-47.9 38.3-57.2L242.7 2.9C246.8 1 251.4 0 256 0zm0 66.8V444.8C394 378 431.1 230.1 432 141.4L256 66.8l0 0z"/>
  </symbol>
  <symbol id="icon-people-roof" viewBox="0 0 640 512">
    <path d="M335.5 4l288 160c15.4 8.6 21 28.1 12.4 43.5s-28.1 21-43.5 12.4L320 68.6 47.5 220c-15.4 8.6-34.9 3-43.5-12.4s-3-34.9 12.4-43.5L304.5 4c9.7-5.4 21.4-5.4 31.1 0zM320 240c53 0 96-43 96-96s-43-96-96-96s-96 43-96 96s43 96 96 96zM144 336a80 80 0 1 0 0-160 80 80 0 1 0 0 160zm368 0a80 80 0 1 0 0-160 80 80 0 1 0 0 160zM192 512H48c-26.5 0-48-21.5-48-48V416c0-53 43-96 96-96s96 43 96 96v48c0 26.5-21.5 48-48 48zm240 0c-26.5 0-48-21.5-48-48V416c0-53 43-96 96-96s96 43 96 96v48c0 26.5-21.5 48-48 48H432z"/>
  </symbol>
  <symbol id="icon-star" viewBox="0 0 576 512">
    <path d="M316.9 18C311.6 7 300.4 0 288.1 0s-23.4 7-28.8 18L195 150.3 51.4 171.5c-12 1.8-22 10.2-25.7 21.7s-.7 24.2 7.9 32.7L137.8 329 113.2 474.7c-2 12 3 24.2 12.9 31.3s23 8 33.8 2.3l128.3-68.5 128.3 68.5c10.8 5.7 23.9 4.9 33.8-2.3s14.9-19.3 12.9-31.3L438.5 329 542.7 225.9c8.6-8.5 11.7-21.2 7.9-32.7s-13.7-19.9-25.7-21.7L381.2 150.3 316.9 18z"/>
  </symbol>
  <symbol id="icon-chevron-down" viewBox="0 0 512 512">
    <path d="M233.4 406.6c12.5 12.5 32.8 12.5 45.3 0l192-192c12.5-12.5 12.5-32.8 0-45.3s-32.8-12.5-45.3 0L256 338.7 86.6 169.4c-12.5-12.5-32.8-12.5-45.3 0s-12.5 32.8 0 45.3l192 192z"/>
  </symbol>
  <symbol id="icon-check" viewBox="0 0 448 512">
    <path d="M438.6 105.4c12.5 12.5 12.5 32.8 0 45.3l-256 256c-12.5 12.5-32.8 12.5-45.3 0l-128-128c-12.5-12.5-12.5-32.8 0-45.3s32.8-12.5 45.3 0L160 338.7 393.4 105.4c12.5-12.5 32.8-12.5 45.3 0z"/>
  </symbol>
  <symbol id="icon-arrow-right" viewBox="0 0 448 512">
    <path d="M438.6 278.6c12.5-12.5 12.5-32.8 0-45.3l-160-160c-12.5-12.5-32.8-12.5-45.3 0s-12.5 32.8 0 45.3L338.8 224 32 224c-17.7 0-32 14.3-32 32s14.3 32 32 32l306.7 0L233.4 393.4c-12.5 12.5-12.5 32.8 0 45.3s32.8 12.5 45.3 0l160-160z"/>
  </symbol>
</svg>
