<svg width="32" height="32" viewBox="0 0 32 32" fill="none" xmlns="http://www.w3.org/2000/svg">
<path d="M22.2041 2.61224C24.1093 2.61224 25.9365 3.36909 27.2837 4.71629C28.6309 6.06349 29.3878 7.89069 29.3878 9.79592V22.2041C29.3878 24.1093 28.6309 25.9365 27.2837 27.2837C25.9365 28.6309 24.1093 29.3878 22.2041 29.3878H9.79592C7.89069 29.3878 6.06349 28.6309 4.71629 27.2837C3.36909 25.9365 2.61224 24.1093 2.61224 22.2041V9.79592C2.61224 7.89069 3.36909 6.06349 4.71629 4.71629C6.06349 3.36909 7.89069 2.61224 9.79592 2.61224H22.2041ZM22.2041 0H9.79592C7.20026 0.00775213 4.71313 1.04231 2.87772 2.87772C1.04231 4.71313 0.00775213 7.20026 0 9.79592V22.2041C0.00775213 24.7997 1.04231 27.2869 2.87772 29.1223C4.71313 30.9577 7.20026 31.9922 9.79592 32H22.2041C24.7997 31.9922 27.2869 30.9577 29.1223 29.1223C30.9577 27.2869 31.9922 24.7997 32 22.2041V9.79592C31.9922 7.20026 30.9577 4.71313 29.1223 2.87772C27.2869 1.04231 24.7997 0.00775213 22.2041 0Z" fill="#0F85C9"/>
<path d="M24.5355 5.55103C24.1654 5.55103 23.8037 5.66076 23.496 5.86635C23.1883 6.07194 22.9485 6.36415 22.8069 6.70604C22.6653 7.04792 22.6282 7.42412 22.7004 7.78706C22.7726 8.15001 22.9508 8.48339 23.2125 8.74506C23.4742 9.00672 23.8075 9.18492 24.1705 9.25711C24.5334 9.32931 24.9096 9.29226 25.2515 9.15064C25.5934 9.00903 25.8856 8.76922 26.0912 8.46153C26.2968 8.15384 26.4065 7.7921 26.4065 7.42205C26.4065 7.17634 26.3581 6.93304 26.2641 6.70604C26.1701 6.47903 26.0323 6.27278 25.8585 6.09904C25.6848 5.92529 25.4785 5.78748 25.2515 5.69345C25.0245 5.59942 24.7812 5.55103 24.5355 5.55103Z" fill="#0F85C9"/>
<path d="M16.0882 10.2759C17.2303 10.2753 18.3469 10.6134 19.2967 11.2475C20.2466 11.8816 20.9871 12.7832 21.4244 13.8382C21.8618 14.8932 21.9764 16.0543 21.7537 17.1745C21.5311 18.2946 20.9812 19.3236 20.1736 20.1312C19.366 20.9387 18.3371 21.4886 17.2169 21.7113C16.0967 21.9339 14.9357 21.8193 13.8807 21.382C12.8257 20.9446 11.9241 20.2042 11.29 19.2543C10.6558 18.3044 10.3177 17.1878 10.3184 16.0457C10.321 14.5163 10.9297 13.0502 12.0112 11.9687C13.0927 10.8872 14.5587 10.2785 16.0882 10.2759ZM16.0882 7.66368C14.4303 7.66691 12.8105 8.16152 11.4337 9.08502C10.0568 10.0085 8.98456 11.3194 8.3525 12.8521C7.72043 14.3848 7.55689 16.0705 7.88255 17.6961C8.2082 19.3217 9.00844 20.8143 10.1821 21.9852C11.3558 23.1561 12.8502 23.9529 14.4766 24.2747C16.103 24.5966 17.7882 24.4291 19.3194 23.7935C20.8506 23.1578 22.1591 22.0826 23.0793 20.7035C23.9996 19.3245 24.4904 17.7036 24.4898 16.0457C24.4894 14.9434 24.2716 13.8521 23.849 12.834C23.4264 11.816 22.8072 10.8913 22.0269 10.1127C21.2465 9.33423 20.3204 8.71721 19.3013 8.29697C18.2823 7.87674 17.1904 7.66154 16.0882 7.66368Z" fill="#0F85C9"/>
</svg>
