<svg width="32" height="32" viewBox="0 0 32 32" fill="none" xmlns="http://www.w3.org/2000/svg">
<path d="M23.4514 32C22.2063 31.9908 20.9667 31.8345 19.7582 31.5344C15.5851 30.5275 11.2878 27.9733 7.65987 24.3423C4.03195 20.7112 1.47458 16.4131 0.467711 12.244C-0.592488 7.85834 0.16366 4.10627 2.59448 1.67547L3.28854 0.981411C3.91826 0.352956 4.77158 0 5.66125 0C6.55092 0 7.40424 0.352956 8.03396 0.981411L12.0224 4.96907C12.6513 5.59858 13.0045 6.45198 13.0045 7.34177C13.0045 8.23156 12.6513 9.08496 12.0224 9.71447L9.66644 12.0697C10.7959 14.0515 12.3321 16.035 14.1476 17.8506C15.9632 19.6661 17.9483 21.2031 19.9294 22.3325L22.2846 19.9765C22.5961 19.6649 22.966 19.4176 23.3731 19.249C23.7802 19.0803 24.2166 18.9935 24.6573 18.9935C25.0979 18.9935 25.5343 19.0803 25.9414 19.249C26.3485 19.4176 26.7184 19.6649 27.03 19.9765L31.0177 23.9642C31.6467 24.5935 32 25.4468 32 26.3365C32 27.2262 31.6467 28.0795 31.0177 28.7088L30.3228 29.4028C28.6091 31.1197 26.2372 32 23.4514 32ZM5.66125 2.38625C5.53417 2.38562 5.40823 2.41035 5.29083 2.45901C5.17343 2.50766 5.06692 2.57926 4.97753 2.6696L4.28267 3.36366C2.46235 5.18398 1.93066 8.1393 2.7855 11.6804C3.69049 15.4317 6.02022 19.3294 9.34488 22.6533C12.6695 25.9771 16.5665 28.3044 20.3186 29.2126C23.8605 30.0675 26.8143 29.5358 28.6346 27.7155L29.3287 27.0214C29.51 26.8399 29.6119 26.5938 29.6119 26.3373C29.6119 26.0807 29.51 25.8347 29.3287 25.6532L25.3418 21.6655C25.1603 21.4842 24.9142 21.3823 24.6577 21.3823C24.4011 21.3823 24.155 21.4842 23.9736 21.6655L20.988 24.6511C20.8088 24.8303 20.5773 24.9479 20.3269 24.9868C20.0765 25.0258 19.8202 24.984 19.5951 24.8676C17.1475 23.602 14.6801 21.7594 12.4594 19.5388C10.2387 17.3181 8.4001 14.8523 7.13136 12.4047C7.01485 12.1797 6.97295 11.9235 7.01173 11.6731C7.05051 11.4227 7.16795 11.1911 7.34706 11.0119L10.3334 8.02628C10.5148 7.84479 10.6167 7.59873 10.6167 7.34217C10.6167 7.08561 10.5148 6.83954 10.3334 6.65806L6.34576 2.6696C6.2561 2.57941 6.14942 2.50793 6.03192 2.45929C5.91441 2.41065 5.78842 2.38582 5.66125 2.38625Z" fill="#0F85C9"/>
<path d="M24.7265 17.6468C24.4099 17.6468 24.1062 17.521 23.8823 17.2971C23.6584 17.0732 23.5326 16.7695 23.5326 16.4529C23.5303 14.3584 22.6973 12.3504 21.2163 10.8692C19.7353 9.38814 17.7273 8.55493 15.6328 8.5524C15.3162 8.5524 15.0125 8.42662 14.7886 8.20271C14.5647 7.97881 14.4389 7.67514 14.4389 7.35849C14.4389 7.04185 14.5647 6.73817 14.7886 6.51427C15.0125 6.29037 15.3162 6.16458 15.6328 6.16458C21.3055 6.16458 25.9204 10.781 25.9204 16.4529C25.9204 16.7695 25.7946 17.0732 25.5707 17.2971C25.3468 17.521 25.0432 17.6468 24.7265 17.6468Z" fill="#0F85C9"/>
<path d="M29.7728 17.6468C29.4561 17.6468 29.1525 17.521 28.9286 17.2971C28.7047 17.0732 28.5789 16.7695 28.5789 16.4529C28.5789 9.31411 22.7685 3.50614 15.6328 3.50614C15.3162 3.50614 15.0125 3.38035 14.7886 3.15645C14.5647 2.93255 14.4389 2.62887 14.4389 2.31223C14.4389 1.99558 14.5647 1.69191 14.7886 1.46801C15.0125 1.2441 15.3162 1.11832 15.6328 1.11832C24.0882 1.11832 30.9667 7.99763 30.9667 16.4529C30.9667 16.7695 30.8409 17.0732 30.617 17.2971C30.3931 17.521 30.0894 17.6468 29.7728 17.6468Z" fill="#0F85C9"/>
</svg>
