<svg width="32" height="32" viewBox="0 0 32 32" fill="none" xmlns="http://www.w3.org/2000/svg">
<path fill-rule="evenodd" clip-rule="evenodd" d="M27.3376 4.65032C24.3294 1.65307 20.329 0.00173791 16.0668 0C7.28473 0 0.137049 7.11294 0.133621 15.8557C0.132392 18.6505 0.866078 21.3784 2.26043 23.7831L0 32L8.44638 29.795C10.7736 31.0582 13.3938 31.7241 16.0604 31.725H16.0669C16.0664 31.725 16.0674 31.725 16.0669 31.725C24.848 31.725 31.9963 24.6114 32 15.8684C32.0016 11.6314 30.3458 7.64745 27.3376 4.65032ZM16.0668 29.047H16.0615C13.6853 29.0461 11.3545 28.4107 9.32125 27.2099L8.83773 26.9243L3.82553 28.2328L5.16342 23.3694L4.84851 22.8706C3.52291 20.7723 2.82279 18.3469 2.82382 15.8566C2.82667 8.58997 8.76756 2.67812 16.0722 2.67812C19.6093 2.67921 22.9344 4.05197 25.4347 6.54317C27.935 9.03436 29.3112 12.3457 29.3097 15.8673C29.3068 23.1345 23.3661 29.047 16.0668 29.047Z" fill="#0F85C9"/>
<path fill-rule="evenodd" clip-rule="evenodd" d="M22.9066 18.9178C22.5157 18.7222 20.594 17.7767 20.2357 17.6462C19.8774 17.5157 19.6168 17.4505 19.3563 17.8418C19.0958 18.233 18.3467 19.1135 18.1186 19.3744C17.8907 19.6352 17.6626 19.668 17.2718 19.4722C16.8809 19.2765 15.6215 18.8638 14.1285 17.5322C12.9665 16.4957 12.1821 15.2158 11.954 14.8243C11.726 14.4331 11.9297 14.2216 12.1254 14.0267C12.3013 13.8515 12.5163 13.5702 12.7118 13.3419C12.9072 13.1137 12.9723 12.9505 13.1026 12.6899C13.2329 12.4289 13.1679 12.2007 13.0701 12.0051C12.9723 11.8094 12.1907 9.88551 11.865 9.10275C11.5476 8.34068 11.2254 8.44393 10.9854 8.43181C10.7578 8.42044 10.4969 8.41809 10.2363 8.41809C9.97578 8.41809 9.55224 8.51594 9.19403 8.90717C8.83577 9.29852 7.82593 10.2442 7.82593 12.168C7.82593 14.0919 9.22654 15.9506 9.422 16.2114C9.61739 16.4724 12.1782 20.4203 16.0992 22.1134C17.0318 22.5161 17.7599 22.7566 18.3275 22.9367C19.2638 23.2343 20.116 23.1922 20.7894 23.0916C21.5404 22.9794 23.102 22.1461 23.4277 21.2331C23.7535 20.32 23.7535 19.5373 23.6557 19.3744C23.558 19.2114 23.2974 19.1135 22.9066 18.9178Z" fill="#0F85C9"/>
</svg>
