<svg width="264" height="80" viewBox="0 0 264 80" fill="none" xmlns="http://www.w3.org/2000/svg">
<path d="M0 52.3476V29.4081H11.6926C14.6974 29.4081 16.9401 29.9652 18.4207 31.0794C19.9013 32.1718 20.6416 33.6137 20.6416 35.4052C20.6416 36.5849 20.3259 37.6226 19.6945 38.5184C19.0848 39.3923 18.2138 40.0914 17.0816 40.6157C15.9711 41.1182 14.6429 41.3694 13.097 41.3694L13.7502 39.7964C15.3615 39.7964 16.7659 40.0477 17.9634 40.5501C19.161 41.0308 20.0864 41.7408 20.7396 42.6802C21.4146 43.5978 21.7521 44.7229 21.7521 46.0556C21.7521 48.0437 20.9465 49.5948 19.3352 50.709C17.7457 51.8014 15.4159 52.3476 12.3458 52.3476H0ZM6.40152 47.6614H11.8232C12.9337 47.6614 13.772 47.4757 14.3381 47.1043C14.926 46.711 15.2199 46.1212 15.2199 45.3347C15.2199 44.5482 14.926 43.9692 14.3381 43.5978C13.772 43.2046 12.9337 43.0079 11.8232 43.0079H5.94426V38.5184H10.8434C11.9321 38.5184 12.7486 38.3327 13.2929 37.9613C13.8373 37.5899 14.1095 37.0328 14.1095 36.29C14.1095 35.5472 13.8373 35.001 13.2929 34.6514C12.7486 34.28 11.9321 34.0943 10.8434 34.0943H6.40152V47.6614Z" fill="#0F85C9"/>
<path d="M24.8077 52.3476V34.5859H30.7193V39.7637L29.8374 38.289C30.36 36.9563 31.2092 35.9623 32.385 35.3069C33.5608 34.6296 34.9869 34.291 36.6635 34.291V39.8947C36.3805 39.851 36.1301 39.8292 35.9123 39.8292C35.7164 39.8073 35.4986 39.7964 35.2591 39.7964C33.9962 39.7964 32.9729 40.146 32.189 40.8451C31.4051 41.5223 31.0132 42.6365 31.0132 44.1877V52.3476H24.8077Z" fill="#0F85C9"/>
<path d="M39.2243 52.3476V34.5859H45.4299V52.3476H39.2243ZM42.3271 32.6197C41.1949 32.6197 40.2804 32.3029 39.5836 31.6693C38.8868 31.0357 38.5385 30.2493 38.5385 29.3098C38.5385 28.3704 38.8868 27.5839 39.5836 26.9503C40.2804 26.3168 41.1949 26 42.3271 26C43.4594 26 44.3739 26.3059 45.0706 26.9176C45.7674 27.5074 46.1158 28.2721 46.1158 29.2115C46.1158 30.1946 45.7674 31.0139 45.0706 31.6693C44.3956 32.3029 43.4811 32.6197 42.3271 32.6197Z" fill="#0F85C9"/>
<path d="M58.1178 59C56.4195 59 54.7973 58.8034 53.2514 58.4101C51.7272 58.0169 50.4208 57.4379 49.3321 56.6733L51.5857 52.3148C52.326 52.9047 53.2405 53.3635 54.3292 53.6912C55.4397 54.0407 56.5175 54.2155 57.5626 54.2155C59.2392 54.2155 60.4476 53.8441 61.188 53.1013C61.9283 52.3803 62.2984 51.3208 62.2984 49.9225V47.8252L62.625 42.8441L62.5924 37.8302V34.5859H68.504V49.1033C68.504 52.4677 67.6004 54.9583 65.7931 56.575C63.9859 58.1917 61.4275 59 58.1178 59ZM57.04 51.43C55.4723 51.43 54.0244 51.0804 52.6961 50.3813C51.3897 49.6604 50.3337 48.6663 49.528 47.3992C48.7442 46.1102 48.3523 44.5919 48.3523 42.8441C48.3523 41.0963 48.7442 39.5889 49.528 38.3217C50.3337 37.0328 51.3897 36.0387 52.6961 35.3396C54.0244 34.6405 55.4723 34.291 57.04 34.291C58.5424 34.291 59.8271 34.5968 60.894 35.2085C61.9609 35.7984 62.7666 36.7269 63.3109 37.994C63.877 39.2612 64.1601 40.8779 64.1601 42.8441C64.1601 44.8103 63.877 46.427 63.3109 47.6941C62.7666 48.9613 61.9609 49.9007 60.894 50.5124C59.8271 51.1241 58.5424 51.43 57.04 51.43ZM58.5098 46.4816C59.2501 46.4816 59.9033 46.3287 60.4694 46.0228C61.0573 45.717 61.5146 45.291 61.8412 44.7448C62.1896 44.1986 62.3637 43.565 62.3637 42.8441C62.3637 42.1231 62.1896 41.4896 61.8412 40.9434C61.5146 40.3972 61.0573 39.9821 60.4694 39.6981C59.9033 39.3923 59.2501 39.2393 58.5098 39.2393C57.7695 39.2393 57.1054 39.3923 56.5175 39.6981C55.9296 39.9821 55.4614 40.3972 55.113 40.9434C54.7864 41.4896 54.6231 42.1231 54.6231 42.8441C54.6231 43.565 54.7864 44.1986 55.113 44.7448C55.4614 45.291 55.9296 45.717 56.5175 46.0228C57.1054 46.3287 57.7695 46.4816 58.5098 46.4816Z" fill="#0F85C9"/>
<path d="M84.0204 34.291C85.3922 34.291 86.6333 34.575 87.7437 35.143C88.8542 35.6892 89.7252 36.5412 90.3566 37.6991C91.0098 38.857 91.3364 40.3535 91.3364 42.1887V52.3476H85.1309V43.2046C85.1309 41.9374 84.8696 41.0199 84.347 40.4518C83.8462 39.862 83.1386 39.567 82.2241 39.567C81.5708 39.567 80.9721 39.72 80.4277 40.0258C79.8834 40.3098 79.4588 40.7577 79.1539 41.3694C78.8491 41.9811 78.6967 42.7785 78.6967 43.7617V52.3476H72.4911V28.0318H78.6967V39.6326L77.2596 38.1579C77.9346 36.8689 78.86 35.9076 80.0358 35.2741C81.2116 34.6187 82.5398 34.291 84.0204 34.291Z" fill="#0F85C9"/>
<path d="M103.136 52.6425C100.872 52.6425 99.1082 52.0854 97.8454 50.9712C96.5825 49.8352 95.951 48.1311 95.951 45.859V30.6207H102.157V45.7934C102.157 46.427 102.331 46.9295 102.679 47.3009C103.028 47.6504 103.474 47.8252 104.018 47.8252C104.759 47.8252 105.39 47.6395 105.913 47.2681L107.448 51.6266C106.925 51.9762 106.283 52.2274 105.521 52.3803C104.759 52.5551 103.964 52.6425 103.136 52.6425ZM93.3708 39.8947V35.2413H106.207V39.8947H93.3708Z" fill="#0F85C9"/>
<path d="M172.944 29.4081H179.411V52.3476H172.944V29.4081ZM164.125 52.3476H157.658V29.4081H164.125V52.3476ZM173.401 43.4012H163.668V38.0268H173.401V43.4012Z" fill="#0F85C9"/>
<path d="M192.562 52.6425C190.624 52.6425 188.904 52.2493 187.402 51.4628C185.899 50.6763 184.712 49.5948 183.841 48.2185C182.992 46.8203 182.568 45.2254 182.568 43.434C182.568 41.6425 182.992 40.0586 183.841 38.6822C184.712 37.3059 185.899 36.2354 187.402 35.4707C188.904 34.6842 190.624 34.291 192.562 34.291C194.5 34.291 196.22 34.6842 197.722 35.4707C199.246 36.2354 200.433 37.3059 201.282 38.6822C202.132 40.0586 202.556 41.6425 202.556 43.434C202.556 45.2254 202.132 46.8203 201.282 48.2185C200.433 49.5948 199.246 50.6763 197.722 51.4628C196.22 52.2493 194.5 52.6425 192.562 52.6425ZM192.562 47.6941C193.28 47.6941 193.912 47.5303 194.456 47.2026C195.022 46.8749 195.469 46.3942 195.795 45.7607C196.122 45.1053 196.285 44.3297 196.285 43.434C196.285 42.5382 196.122 41.7845 195.795 41.1728C195.469 40.5392 195.022 40.0586 194.456 39.7309C193.912 39.4032 193.28 39.2393 192.562 39.2393C191.865 39.2393 191.234 39.4032 190.668 39.7309C190.123 40.0586 189.677 40.5392 189.328 41.1728C189.002 41.7845 188.839 42.5382 188.839 43.434C188.839 44.3297 189.002 45.1053 189.328 45.7607C189.677 46.3942 190.123 46.8749 190.668 47.2026C191.234 47.5303 191.865 47.6941 192.562 47.6941Z" fill="#0F85C9"/>
<path d="M212.877 52.6425C211.44 52.6425 210.145 52.3585 208.991 51.7905C207.859 51.2224 206.966 50.3376 206.313 49.136C205.681 47.9126 205.365 46.3724 205.365 44.5154V34.5859H211.571V43.4995C211.571 44.8759 211.821 45.859 212.322 46.4489C212.845 47.0387 213.574 47.3337 214.51 47.3337C215.12 47.3337 215.675 47.1917 216.176 46.9076C216.677 46.6236 217.08 46.1758 217.385 45.5641C217.689 44.9305 217.842 44.1221 217.842 43.139V34.5859H224.047V52.3476H218.136V47.3337L219.279 48.7428C218.669 50.0536 217.787 51.0367 216.633 51.6922C215.479 52.3257 214.227 52.6425 212.877 52.6425Z" fill="#0F85C9"/>
<path d="M234.479 52.6425C232.976 52.6425 231.507 52.4677 230.07 52.1182C228.654 51.7686 227.511 51.3317 226.64 50.8073L228.502 46.5472C229.329 47.0497 230.298 47.4538 231.409 47.7597C232.519 48.0437 233.608 48.1857 234.675 48.1857C235.72 48.1857 236.438 48.0765 236.83 47.858C237.244 47.6395 237.451 47.3446 237.451 46.9732C237.451 46.6236 237.255 46.3724 236.863 46.2195C236.493 46.0447 235.992 45.9136 235.361 45.8262C234.751 45.7388 234.076 45.6405 233.336 45.5313C232.595 45.422 231.844 45.28 231.082 45.1053C230.342 44.9086 229.656 44.6246 229.024 44.2532C228.415 43.86 227.925 43.3356 227.555 42.6802C227.184 42.0248 226.999 41.1946 226.999 40.1897C226.999 39.0536 227.326 38.0487 227.979 37.1748C228.654 36.279 229.634 35.5799 230.919 35.0775C232.203 34.5531 233.771 34.291 235.622 34.291C236.863 34.291 238.115 34.422 239.378 34.6842C240.662 34.9245 241.74 35.2959 242.611 35.7984L240.75 40.0258C239.879 39.5233 239.008 39.1847 238.137 39.0099C237.266 38.8133 236.438 38.715 235.655 38.715C234.609 38.715 233.869 38.8352 233.434 39.0755C233.02 39.3158 232.813 39.6107 232.813 39.9603C232.813 40.3098 232.998 40.5829 233.368 40.7795C233.738 40.9543 234.228 41.0963 234.838 41.2056C235.469 41.2929 236.155 41.3913 236.896 41.5005C237.636 41.5879 238.376 41.7299 239.117 41.9265C239.879 42.1231 240.565 42.4181 241.174 42.8113C241.806 43.1827 242.306 43.6961 242.677 44.3515C243.047 44.9851 243.232 45.8044 243.232 46.8093C243.232 47.9017 242.894 48.8848 242.219 49.7587C241.566 50.6326 240.586 51.3317 239.28 51.856C237.995 52.3803 236.395 52.6425 234.479 52.6425Z" fill="#0F85C9"/>
<path d="M255.182 52.6425C253.091 52.6425 251.262 52.2493 249.695 51.4628C248.149 50.6544 246.94 49.5621 246.069 48.1857C245.22 46.7875 244.795 45.2036 244.795 43.434C244.795 41.6643 245.209 40.0914 246.037 38.715C246.886 37.3168 248.051 36.2354 249.531 35.4707C251.012 34.6842 252.678 34.291 254.528 34.291C256.27 34.291 257.86 34.6514 259.297 35.3724C260.734 36.0715 261.877 37.1092 262.726 38.4856C263.575 39.862 264 41.5333 264 43.4995C264 43.718 263.989 43.9692 263.967 44.2532C263.946 44.5372 263.924 44.7994 263.902 45.0397H249.891V41.7627H260.603L258.252 42.6802C258.273 41.8719 258.121 41.1728 257.794 40.5829C257.49 39.993 257.054 39.5343 256.488 39.2066C255.944 38.8788 255.301 38.715 254.561 38.715C253.821 38.715 253.167 38.8788 252.601 39.2066C252.057 39.5343 251.632 40.004 251.328 40.6157C251.023 41.2056 250.87 41.9047 250.87 42.713V43.6634C250.87 44.5372 251.045 45.291 251.393 45.9245C251.763 46.5581 252.286 47.0497 252.961 47.3992C253.636 47.7269 254.441 47.8908 255.378 47.8908C256.248 47.8908 256.989 47.7706 257.598 47.5303C258.23 47.2681 258.85 46.8749 259.46 46.3505L262.726 49.7587C261.877 50.6981 260.832 51.4191 259.591 51.9215C258.35 52.4022 256.88 52.6425 255.182 52.6425Z" fill="#0F85C9"/>
<path d="M150.1 45.8861C150.056 45.2348 149.888 44.6416 149.493 44.0795C149.336 43.8547 149.054 43.688 148.67 43.4943C149.199 44.3665 149.774 45.0681 150.1 45.8861Z" fill="url(#paint0_linear_103_3301)"/>
<path d="M146.52 45.0222C146.599 45.1346 146.678 45.2471 146.757 45.3595C146.96 45.4137 147.062 45.4408 147.265 45.4951C147.051 45.0725 146.814 44.7353 146.601 44.3127L146.397 44.2585C146.397 44.2585 146.273 44.3166 146.25 44.4019C146.205 44.5725 146.261 44.7703 146.52 45.0222Z" fill="url(#paint1_linear_103_3301)"/>
<path d="M145.36 43.2507C145.54 43.3902 145.766 43.3592 145.789 43.2739C145.812 43.1886 145.733 43.0761 145.654 42.9637C145.654 42.9637 145.654 42.9637 145.552 42.9366C145.326 42.9677 145.202 43.0259 145.078 43.084C145.179 43.1112 145.258 43.2236 145.36 43.2507Z" fill="url(#paint2_linear_103_3301)"/>
<path d="M148.351 50.8103C148.317 50.5273 148.16 50.3025 147.956 50.2482C147.651 50.1669 147.573 50.0544 147.415 49.8296C147.02 49.2675 146.728 48.7325 146.333 48.1704C145.781 47.3835 145.206 46.6819 144.88 45.8639C144.801 45.7515 144.722 45.639 144.542 45.4995C144.057 45.2786 143.944 44.8832 143.832 44.4877C143.73 44.4606 143.629 44.4335 143.403 44.4646C143.899 45.0538 144.248 45.7865 144.619 46.4339C145.014 46.996 145.284 47.6162 145.802 48.1202C145.96 48.345 146.095 48.6551 146.253 48.88C146.411 49.1048 146.772 49.3839 146.805 49.6669C146.917 50.0623 147.301 50.2561 147.436 50.5663C147.571 50.8764 147.932 51.1555 148.191 51.4074C148.27 51.5198 148.451 51.6594 148.507 51.8571C148.54 52.1401 148.54 52.1401 148.992 52.078C148.654 51.7136 148.339 51.2639 148.351 50.8103Z" fill="url(#paint3_linear_103_3301)"/>
<path d="M140.265 48.4704C140.187 48.358 140.029 48.1331 139.95 48.0207C139.894 47.823 139.736 47.5982 139.657 47.4857C139.421 47.1485 139.161 46.8965 138.902 46.6446C138.721 46.505 138.665 46.3073 138.609 46.1096C138.507 46.0825 138.383 46.1407 138.281 46.1135C138.281 46.1135 138.281 46.1135 138.36 46.226C138.551 46.7338 138.765 47.1564 139.205 47.5479C139.566 47.8269 139.78 48.2495 140.039 48.5015C140.039 48.5015 140.141 48.5286 140.265 48.4704Z" fill="url(#paint4_linear_103_3301)"/>
<path d="M129.949 43.0678C130.107 43.2927 130.163 43.4904 130.49 43.4864C130.513 43.4011 130.536 43.3158 130.536 43.3158C130.457 43.2034 130.378 43.091 130.277 43.0639C130.04 42.7266 130.029 42.3583 129.668 42.0792C129.307 41.8002 129.195 41.4047 128.958 41.0675L128.88 40.955C128.654 40.9861 128.45 40.9319 128.201 41.0482C128.359 41.2731 128.438 41.3855 128.619 41.525C129.16 41.9436 129.577 42.4204 129.949 43.0678Z" fill="url(#paint5_linear_103_3301)"/>
<path d="M141.423 45.7638C141.367 45.5661 141.39 45.4808 141.209 45.3413C140.95 45.0893 140.69 44.8374 140.555 44.5272C140.533 44.6125 140.408 44.6707 140.284 44.7289C140.521 45.0661 140.78 45.3181 140.994 45.7407C141.174 45.8802 141.276 45.9073 141.423 45.7638Z" fill="url(#paint6_linear_103_3301)"/>
<path d="M142.571 47.9891C142.91 48.3535 143.045 48.6636 143.281 49.0009C143.518 49.3381 143.879 49.6172 143.991 50.0126C144.352 50.2917 144.442 50.7724 144.803 51.0515C145.085 51.2182 145.22 51.5283 145.253 51.8113C145.546 52.3463 145.839 52.8813 146.38 53.2999C146.561 53.4394 146.718 53.6643 146.774 53.862C146.808 54.145 146.988 54.2846 147.146 54.5094C147.327 54.6489 147.405 54.7613 147.484 54.8738L147.563 54.9862C147.71 54.8427 147.756 54.6721 147.779 54.5868C147.666 54.1914 147.407 53.9394 147 53.8309C146.967 53.5479 146.911 53.3502 146.878 53.0672C146.415 52.761 146.077 52.3966 145.987 51.9159C145.908 51.8034 145.852 51.6057 145.751 51.5786C145.468 51.4119 145.412 51.2142 145.356 51.0165C145.244 50.6211 144.906 50.2567 144.545 49.9776C144.466 49.8652 144.364 49.8381 144.285 49.7257C144.206 49.6133 144.026 49.4737 144.071 49.3031C144.163 48.9619 143.926 48.6246 143.644 48.458C143.384 48.206 143.125 47.9541 142.967 47.7292C142.809 47.5044 142.652 47.2796 142.347 47.1982C142.256 47.5394 142.289 47.8224 142.571 47.9891Z" fill="url(#paint7_linear_103_3301)"/>
<path d="M143.683 57.697C143.344 57.3326 143.255 56.8519 142.792 56.5457C142.691 56.5186 142.612 56.4061 142.634 56.3208C142.578 56.1231 142.398 55.9836 142.24 55.7587C142.06 55.6192 141.902 55.3944 141.744 55.1695C141.586 54.9447 141.632 54.7741 141.451 54.6345C141.192 54.3826 141.565 54.2081 141.407 53.9832C141.024 53.7894 141.024 53.7894 140.572 53.8516L140.549 53.9369C140.92 54.5843 141.416 55.1735 141.664 55.8791C141.664 55.8791 141.664 55.879 141.743 55.9915C142.149 56.0999 142.16 56.4683 142.317 56.6931C142.475 56.9179 142.735 57.1699 142.994 57.4218C143.073 57.5343 143.276 57.5885 143.253 57.6738C143.332 57.7862 143.411 57.8986 143.49 58.0111C143.614 57.9529 143.716 57.98 143.942 57.9489C143.784 57.7241 143.784 57.7241 143.683 57.697Z" fill="url(#paint8_linear_103_3301)"/>
<path d="M131.631 49.8214C131.71 49.9338 131.789 50.0462 132.037 49.9298C131.699 49.5655 131.508 49.0576 131.52 48.604C131.34 48.4645 131.136 48.4102 130.979 48.1854C130.584 47.6233 130.088 47.0341 129.818 46.4138C129.841 46.3285 129.739 46.3014 129.638 46.2743C129.333 46.1929 129.175 45.9681 129.119 45.7703C129.007 45.3749 128.872 45.0648 128.386 44.8439C128.285 44.8168 128.206 44.7043 128.229 44.619C128.195 44.336 128.015 44.1965 127.755 43.9445C127.575 43.805 127.519 43.6073 127.44 43.4948C127.417 43.5801 127.394 43.6655 127.372 43.7508C127.529 43.9756 127.687 44.2004 127.619 44.4563C127.596 44.5416 127.675 44.654 127.777 44.6812C128.216 45.0727 128.532 45.5223 128.847 45.972C129.219 46.6194 129.692 47.2939 130.087 47.856C130.323 48.1933 130.458 48.5034 130.718 48.7554C131.135 49.2322 131.371 49.5694 131.631 49.8214Z" fill="url(#paint9_linear_103_3301)"/>
<path d="M142.383 51.9592C142.563 52.0988 142.721 52.3236 142.879 52.5484C143.115 52.8857 143.329 53.3083 143.668 53.6726C143.746 53.7851 143.904 54.0099 143.881 54.0952C143.915 54.3782 144.073 54.6031 144.253 54.7426C144.434 54.8821 144.591 55.107 144.647 55.3047C144.737 55.7854 145.121 55.9792 145.482 56.2583C145.561 56.3707 145.685 56.3125 145.809 56.2543C145.753 56.0566 145.799 55.886 145.618 55.7465C145.438 55.6069 145.303 55.2968 145.145 55.0719C144.987 54.8471 144.875 54.4517 144.593 54.285C144.333 54.0331 144.3 53.75 144.041 53.4981C143.567 52.8236 143.071 52.2344 142.598 51.5599C142.362 51.2226 142.125 50.8853 141.888 50.5481C141.809 50.4356 141.629 50.2961 141.448 50.1566C141.448 50.1566 141.347 50.1295 141.121 50.1605C141.571 50.9203 141.864 51.4553 142.383 51.9592Z" fill="url(#paint10_linear_103_3301)"/>
<path d="M140.474 57.4806C140.238 57.1433 139.899 56.779 139.787 56.3835C139.731 56.1858 139.573 55.961 139.393 55.8214C139.111 55.6548 138.953 55.43 138.818 55.1198C138.739 55.0074 138.637 54.9803 138.513 55.0385C138.501 55.4921 138.839 55.8564 139.177 56.2208C139.516 56.5852 139.729 57.0077 140.068 57.3721L140.147 57.4845C140.248 57.5117 140.451 57.5659 140.553 57.593C140.553 57.593 140.576 57.5077 140.474 57.4806Z" fill="url(#paint11_linear_103_3301)"/>
<path d="M133.974 53.2793C134.053 53.3917 134.132 53.5041 134.211 53.6165C134.29 53.7289 134.47 53.8685 134.549 53.9809C134.639 54.4616 135.124 54.6825 135.338 55.1051C135.417 55.2175 135.62 55.2717 135.778 55.4966C135.666 55.1011 135.734 54.8452 135.452 54.6786C135.17 54.5119 135.136 54.2289 134.978 54.0041C134.821 53.7792 134.663 53.5544 134.505 53.3296C134.347 53.1047 134.167 52.9652 134.009 52.7403C133.785 51.9495 133.063 51.3913 132.567 50.8021C132.567 50.8021 132.465 50.775 132.363 50.7479C132.341 50.8332 132.318 50.9185 132.42 50.9456C132.498 51.058 132.679 51.1975 132.837 51.4224C132.972 51.7325 133.231 51.9845 133.366 52.2946C133.501 52.6048 133.862 52.8838 133.974 53.2793Z" fill="url(#paint12_linear_103_3301)"/>
<path d="M148.143 47.1001C148.324 47.2396 148.481 47.4644 148.639 47.6893C148.955 48.1389 149.27 48.5886 149.439 49.1818C149.416 49.2671 149.495 49.3795 149.596 49.4066C149.675 49.519 149.777 49.5461 149.856 49.6586C149.901 49.488 149.969 49.232 149.913 49.0343C149.733 48.8948 149.677 48.6971 149.722 48.5265C149.745 48.4412 149.542 48.3869 149.463 48.2745C149.384 48.1621 149.181 48.1079 149.203 48.0226C149.012 47.5147 148.572 47.1232 148.28 46.5882C148.145 46.2781 147.964 46.1386 147.58 45.9448C147.558 46.0301 147.433 46.0883 147.535 46.1154C147.67 46.4255 147.782 46.821 148.143 47.1001Z" fill="url(#paint13_linear_103_3301)"/>
<path d="M123.471 51.025C123.324 51.1685 123.482 51.3933 123.538 51.591C123.718 51.7306 123.774 51.9283 123.955 52.0678C124.237 52.2345 124.417 52.374 124.7 52.5407L124.621 52.4282C124.282 52.0639 124.282 52.0639 124.272 51.6956C124.012 51.4436 123.73 51.277 123.471 51.025Z" fill="url(#paint14_linear_103_3301)"/>
<path d="M126.516 42.0605C126.358 41.8357 126.223 41.5255 126.167 41.3278L126.088 41.2154C126.009 41.103 125.93 40.9905 125.852 40.8781C125.671 40.7386 125.389 40.5719 125.163 40.603C125.242 40.7154 125.321 40.8278 125.4 40.9403C125.478 41.0527 125.636 41.2775 125.692 41.4752C125.771 41.5877 125.873 41.6148 125.85 41.7001C125.883 41.9831 126.143 42.235 126.301 42.4599C126.537 42.7971 126.898 43.0762 127.01 43.4716C127.145 43.7818 127.145 43.7818 127.676 43.8321C127.597 43.7197 127.496 43.6925 127.519 43.6072C127.17 42.8745 126.854 42.4249 126.516 42.0605Z" fill="url(#paint15_linear_103_3301)"/>
<path d="M138.276 54.7012C138.299 54.6159 138.401 54.643 138.401 54.643C138.187 54.2205 138.097 53.7398 137.635 53.4336C137.454 53.294 137.444 52.9257 137.286 52.7009C137.128 52.476 136.846 52.3094 136.587 52.0574C136.452 51.7473 136.192 51.4953 135.933 51.2434C135.933 51.2434 135.831 51.2162 135.729 51.1891C135.943 51.6117 136.134 52.1195 136.348 52.5421C136.427 52.6545 136.506 52.7669 136.585 52.8794C137.081 53.4686 137.701 53.9996 138.276 54.7012Z" fill="url(#paint16_linear_103_3301)"/>
<path d="M137.495 49.4673C137.552 49.665 137.608 49.8628 137.788 50.0023C138.172 50.1961 138.284 50.5915 138.419 50.9017C138.554 51.2118 138.836 51.3784 139.141 51.4598C138.927 51.0372 139.087 50.4401 138.398 50.165C138.398 50.165 138.398 50.165 138.319 50.0526C138.286 49.7696 138.026 49.5176 137.767 49.2657L137.688 49.1532C137.7 48.6996 137.215 48.4787 136.877 48.1144C136.775 48.0872 136.673 48.0601 136.628 48.2307C136.628 48.2307 136.707 48.3431 136.808 48.3703C137.124 48.8199 137.36 49.1572 137.495 49.4673Z" fill="url(#paint17_linear_103_3301)"/>
<path d="M128.931 49.7405C128.953 49.6552 128.75 49.6009 128.773 49.5156C128.592 49.3761 128.435 49.1513 128.378 48.9535C128.322 48.7558 128.266 48.5581 128.109 48.3333C127.951 48.1084 127.747 48.0542 127.59 47.8294C127.353 47.4921 127.116 47.1548 126.778 46.7905C126.405 46.965 126.36 47.1356 126.563 47.1899C127.048 47.4107 127.262 47.8333 127.499 48.1706C127.656 48.3954 127.814 48.6202 127.972 48.8451C128.231 49.097 128.468 49.4343 128.603 49.7444C128.738 50.0545 128.997 50.3065 129.483 50.5274C129.223 50.2754 128.862 49.9964 128.931 49.7405Z" fill="url(#paint18_linear_103_3301)"/>
<path d="M133.239 47.8747C133.397 48.0996 133.407 48.4679 133.791 48.6617C133.994 48.7159 134.05 48.9136 134.129 49.026C134.298 49.6192 134.941 50.0649 135.234 50.5999C135.234 50.5999 135.335 50.627 135.516 50.7666C135.561 50.596 135.584 50.5107 135.505 50.3982C135.268 50.061 135.032 49.7237 134.795 49.3865C134.637 49.1616 134.457 49.0221 134.299 48.7973C134.063 48.46 133.826 48.1227 133.612 47.7002C133.533 47.5878 133.454 47.4754 133.206 47.5917C133.307 47.6188 133.262 47.7894 133.239 47.8747Z" fill="url(#paint19_linear_103_3301)"/>
<path d="M132.452 45.9286C132.35 45.9015 132.373 45.8162 132.294 45.7037C132.215 45.5913 132.261 45.4207 132.159 45.3936C131.877 45.227 131.765 44.8315 131.505 44.5796C131.426 44.4671 131.246 44.3276 131.121 44.3858C131.211 44.8665 131.211 44.8665 131.47 45.1185C131.549 45.2309 131.628 45.3433 131.707 45.4558C132.101 46.0178 132.394 46.5528 132.788 47.1149C132.788 47.1149 132.89 47.142 133.172 47.3087C132.902 46.6884 133.039 46.1766 132.452 45.9286Z" fill="url(#paint20_linear_103_3301)"/>
<path d="M123.593 46.4888C123.412 46.3492 123.333 46.2368 123.175 46.012C123.097 45.8996 122.995 45.8724 122.871 45.9306C123.005 46.2408 123.14 46.5509 123.298 46.7757C123.535 47.113 123.771 47.4503 123.884 47.8457C124.019 48.1558 124.199 48.2954 124.651 48.2332C124.651 48.2332 124.674 48.1479 124.572 48.1208C124.257 47.6712 124.02 47.3339 123.931 46.8531C123.954 46.7678 123.796 46.543 123.593 46.4888Z" fill="url(#paint21_linear_103_3301)"/>
<path d="M148.992 52.078C148.822 52.3068 148.777 52.4774 149.036 52.7294C149.082 52.5588 149.105 52.4735 149.252 52.33C149.071 52.1904 148.97 52.1633 148.992 52.078Z" fill="url(#paint22_linear_103_3301)"/>
<path d="M127.468 52.3657C127.582 51.9392 127.221 51.6601 127.086 51.35C127.03 51.1523 126.849 51.0127 126.669 50.8732C126.567 50.8461 126.465 50.8189 126.285 50.6794C126.499 51.102 126.634 51.4121 126.769 51.7222C126.825 51.92 127.005 52.0595 127.163 52.2843C127.163 52.2843 127.265 52.3115 127.468 52.3657Z" fill="url(#paint23_linear_103_3301)"/>
<path d="M136.742 47.8042C136.663 47.6918 136.731 47.4359 136.629 47.4087C136.347 47.2421 136.212 46.9319 136.055 46.7071C135.897 46.4823 135.739 46.2574 135.355 46.0637C135.332 46.149 135.287 46.3196 135.264 46.4049C135.58 46.8546 136.042 47.1607 136.256 47.5833C136.335 47.6957 136.493 47.9205 136.742 47.8042Z" fill="url(#paint24_linear_103_3301)"/>
<path d="M123.544 42.1813C123.488 41.9836 123.33 41.7587 123.15 41.6192C123.127 41.7045 123.104 41.7898 123.059 41.9604C123.273 42.383 123.802 43.2552 124.084 43.4219C124.186 43.449 124.288 43.4761 124.366 43.5885C124.435 43.3326 124.254 43.1931 124.096 42.9682C123.939 42.7434 123.679 42.4914 123.544 42.1813Z" fill="url(#paint25_linear_103_3301)"/>
<path d="M122.367 49.4511C122.298 49.707 122.253 49.8776 122.411 50.1024C122.67 50.3544 122.907 50.6917 123.064 50.9165C123.143 51.0289 123.245 51.056 123.369 50.9978C123.415 50.8272 123.359 50.6295 123.178 50.49C122.942 50.1527 122.705 49.8155 122.367 49.4511Z" fill="url(#paint26_linear_103_3301)"/>
<path d="M136.77 56.675C136.691 56.5626 136.635 56.3649 136.556 56.2524C136.398 56.0276 136.116 55.861 135.936 55.7214C135.811 55.7796 135.71 55.7525 135.687 55.8378L135.664 55.9231C135.822 56.1479 136.002 56.2874 136.16 56.5123C136.363 56.5665 136.567 56.6208 136.77 56.675Z" fill="url(#paint27_linear_103_3301)"/>
<path d="M141.359 49.6758C141.382 49.5905 141.303 49.4781 141.201 49.451C140.896 49.3696 140.761 49.0595 140.502 48.8075C140.231 49.0092 140.185 49.1798 140.388 49.234C140.569 49.3736 140.749 49.5131 140.805 49.7108C140.783 49.7961 140.884 49.8232 140.986 49.8504C141.088 49.8775 141.189 49.9046 141.189 49.9046C141.314 49.8464 141.336 49.7611 141.359 49.6758Z" fill="url(#paint28_linear_103_3301)"/>
<path d="M130.552 52.6401C130.811 52.8921 130.924 53.2875 131.059 53.5977C131.059 53.5977 131.138 53.7101 131.239 53.7372C131.262 53.6519 131.386 53.5937 131.285 53.5666C131.251 53.2836 131.116 52.9735 130.834 52.8068C130.755 52.6944 130.552 52.6402 130.496 52.4424C130.598 52.4696 130.473 52.5277 130.552 52.6401Z" fill="url(#paint29_linear_103_3301)"/>
<path d="M121.86 48.4936C121.916 48.6913 121.871 48.8619 121.927 49.0596C122.006 49.1721 122.186 49.3116 122.288 49.3387C122.311 49.2534 122.311 49.2534 122.333 49.1681C122.176 48.9433 122.018 48.7184 121.86 48.4936Z" fill="url(#paint30_linear_103_3301)"/>
<path d="M125.293 49.5009C125.281 49.9545 125.461 50.0941 125.969 50.2296C125.992 50.1443 126.015 50.059 126.015 50.059C125.756 49.8071 125.621 49.4969 125.237 49.3032C125.338 49.3303 125.316 49.4156 125.293 49.5009Z" fill="url(#paint31_linear_103_3301)"/>
<path d="M134.826 45.1915C134.871 45.0209 134.894 44.9356 134.94 44.765C134.759 44.6254 134.556 44.5712 134.274 44.4045C134.137 44.9163 134.137 44.9164 134.826 45.1915Z" fill="url(#paint32_linear_103_3301)"/>
<path d="M141.975 46.5508C141.716 46.2988 141.558 46.074 141.4 45.8492C141.286 46.2757 141.365 46.3881 141.975 46.5508Z" fill="url(#paint33_linear_103_3301)"/>
<path d="M125.572 45.1895C125.414 44.9647 125.505 44.6235 124.975 44.5732C125.132 44.798 125.211 44.9104 125.29 45.0229C125.369 45.1353 125.471 45.1624 125.572 45.1895Z" fill="url(#paint34_linear_103_3301)"/>
<path d="M135.164 45.5558C134.938 45.5869 134.915 45.6722 134.994 45.7846C135.073 45.897 135.152 46.0094 135.355 46.0637C135.401 45.8931 135.345 45.6953 135.164 45.5558Z" fill="url(#paint35_linear_103_3301)"/>
<path d="M140.144 53.0065L140.347 53.0607C140.347 53.0607 140.37 52.9754 140.393 52.8901C140.336 52.6924 140.009 52.6964 140.077 52.4405C139.806 52.6421 139.963 52.867 140.144 53.0065Z" fill="url(#paint36_linear_103_3301)"/>
<path d="M130.305 51.9346C130.203 51.9075 130.102 51.8804 129.898 51.8262C130.056 52.051 130.135 52.1634 130.214 52.2758C130.293 52.3883 130.417 52.3301 130.519 52.3572C130.463 52.1595 130.485 52.0742 130.305 51.9346Z" fill="url(#paint37_linear_103_3301)"/>
<path d="M127.58 52.761C127.761 52.9005 127.84 53.0129 128.076 53.3502C128.066 52.9819 128.01 52.7841 127.705 52.7028L127.58 52.761Z" fill="url(#paint38_linear_103_3301)"/>
<path d="M131.995 54.5784C131.972 54.6637 132.051 54.7761 132.152 54.8033C132.152 54.8033 132.254 54.8304 132.333 54.9428L132.356 54.8575C132.378 54.7722 132.322 54.5745 131.995 54.5784Z" fill="url(#paint39_linear_103_3301)"/>
<path d="M133.857 43.9277C133.925 43.6718 133.722 43.6176 133.541 43.4781C133.597 43.6758 133.552 43.8464 133.857 43.9277Z" fill="url(#paint40_linear_103_3301)"/>
<path d="M122.499 45.2832L122.375 45.3414C122.375 45.3414 122.453 45.4538 122.555 45.481C122.555 45.481 122.578 45.3956 122.679 45.4228C122.679 45.4228 122.578 45.3957 122.499 45.2832Z" fill="url(#paint41_linear_103_3301)"/>
<path d="M146.023 56.6769C145.82 56.6226 145.741 56.5102 145.787 56.3396C145.594 56.6537 145.696 56.6808 146.023 56.6769Z" fill="url(#paint42_linear_103_3301)"/>
<path d="M124.626 43.8405C124.547 43.7281 124.445 43.701 124.468 43.6157C124.445 43.701 124.547 43.7281 124.524 43.8134C124.501 43.8987 124.524 43.8134 124.626 43.8405Z" fill="url(#paint43_linear_103_3301)"/>
<path d="M128.313 53.6875C128.313 53.6875 128.415 53.7146 128.437 53.6293C128.336 53.6022 128.358 53.5169 128.358 53.5169L128.257 53.4897C128.336 53.6022 128.313 53.6875 128.313 53.6875Z" fill="url(#paint44_linear_103_3301)"/>
<path d="M149.876 43.7027C147.975 40.6364 143.511 31.6774 144.557 27.7535C144.58 27.6682 144.58 27.6682 144.603 27.5829C144.625 27.4976 144.625 27.4976 144.648 27.4123L145.603 23.8297C146.168 23.341 148.123 22.1271 151.067 22.9135C151.067 22.9135 151.067 22.9135 151.169 22.9407C151.169 22.9407 151.169 22.9407 151.27 22.9678C151.27 22.9678 151.27 22.9678 151.372 22.9949C151.372 22.9949 151.372 22.9949 151.473 23.022C151.473 23.022 151.473 23.022 151.575 23.0491C151.575 23.0491 151.575 23.0491 151.676 23.0762C151.676 23.0762 151.676 23.0762 151.778 23.1034C151.778 23.1034 151.778 23.1034 151.879 23.1305C151.879 23.1305 151.879 23.1305 151.981 23.1576C151.981 23.1576 151.981 23.1576 152.082 23.1847C152.082 23.1847 152.082 23.1847 152.184 23.2118C152.184 23.2118 152.184 23.2118 152.207 23.1265C152.207 23.1265 152.207 23.1265 152.229 23.0412C152.229 23.0412 152.229 23.0412 152.252 22.9559C152.252 22.9559 152.252 22.9559 152.275 22.8706C152.275 22.8706 152.275 22.8706 152.298 22.7853C152.298 22.7853 152.298 22.7853 152.32 22.7C152.32 22.7 152.32 22.7 152.343 22.6147C152.343 22.6147 152.343 22.6147 152.366 22.5294C152.366 22.5294 152.366 22.5294 152.389 22.4441C152.389 22.4441 152.389 22.4441 152.411 22.3588C152.411 22.3588 152.411 22.3588 152.434 22.2735C152.434 22.2735 152.434 22.2735 152.457 22.1882L153.025 20.0557C153.025 20.0557 153.025 20.0557 153.048 19.9704C153.048 19.9704 153.048 19.9704 153.071 19.8851C153.071 19.8851 153.071 19.8851 153.093 19.7998C153.093 19.7998 153.093 19.7998 153.116 19.7145C153.116 19.7145 153.116 19.7145 153.139 19.6292C153.139 19.6292 153.139 19.6292 153.161 19.5439C153.161 19.5439 153.161 19.5439 153.184 19.4586C153.184 19.4586 153.184 19.4586 153.207 19.3733C153.207 19.3733 153.207 19.3733 153.23 19.288C153.23 19.288 153.23 19.288 153.252 19.2027C153.252 19.2027 153.252 19.2027 153.151 19.1756L148.296 14.1325C148.296 14.1325 148.296 14.1325 148.195 14.1054C148.195 14.1054 148.195 14.1054 148.093 14.0783C148.093 14.0783 148.093 14.0783 147.992 14.0512C147.992 14.0512 147.992 14.0512 147.89 14.0241C147.89 14.0241 147.89 14.0241 147.789 13.9969L147.687 13.9698L147.586 13.9427L131.443 9.63092L131.342 9.6038L131.24 9.57668L127.179 8.49196C126.367 8.27501 125.622 8.6241 125.44 9.30651L124.53 12.7185C124.348 13.4009 124.821 14.0755 125.633 14.2924L128.577 15.0788L128.327 16.0171C128.327 16.0171 128.327 16.0171 128.305 16.1024C128.305 16.1024 128.305 16.1024 128.282 16.1877C128.282 16.1877 128.282 16.1877 128.259 16.273C128.259 16.273 128.259 16.273 128.236 16.3583C128.236 16.3583 128.236 16.3583 128.214 16.4436C128.214 16.4436 128.214 16.4436 128.191 16.5289C128.191 16.5289 128.191 16.5289 128.168 16.6142C128.168 16.6142 128.168 16.6142 128.247 16.7267C128.247 16.7267 128.247 16.7267 128.326 16.8391C128.326 16.8391 128.427 16.8662 128.405 16.9515C128.405 16.9515 128.506 16.9786 128.483 17.0639L128.585 17.091L128.686 17.1182L128.788 17.1453C128.788 17.1453 128.788 17.1453 128.89 17.1724C128.89 17.1724 128.89 17.1724 128.991 17.1995C128.991 17.1995 128.991 17.1995 129.093 17.2266C129.093 17.2266 129.093 17.2266 129.194 17.2537L129.296 17.2809C128.932 18.6457 127.98 20.5844 126.444 21.4532C126.444 21.4532 126.444 21.4532 126.319 21.5114C126.319 21.5114 126.319 21.5114 126.297 21.5967C126.172 21.6549 126.15 21.7402 126.003 21.8837C126.003 21.8837 126.003 21.8837 125.98 21.969C125.98 21.969 125.98 21.969 125.957 22.0543C125.934 22.1396 125.889 22.3102 125.866 22.3955C125.866 22.3955 125.866 22.3955 125.843 22.4808L125.821 22.5661C125.798 22.6514 125.798 22.6514 125.877 22.7638L125.956 22.8762L126.034 22.9886L126.113 23.101C126.192 23.2135 126.293 23.2406 126.395 23.2677C126.496 23.2948 126.496 23.2948 126.598 23.3219C126.7 23.349 126.7 23.349 126.801 23.3762L126.903 23.4033L127.004 23.4304C127.004 23.4304 127.004 23.4304 127.106 23.4575C127.106 23.4575 127.106 23.4575 127.207 23.4846C130.051 23.422 132.684 22.1149 134.22 21.2461C134.299 21.3585 134.378 21.4709 134.479 21.498L133.615 24.7395C133.593 24.8248 133.593 24.8248 133.57 24.9101C133.547 24.9954 133.547 24.9954 133.524 25.0807C132.456 29.0898 124.049 34.5195 120.975 36.2571C120.975 36.2571 120.953 36.3424 120.851 36.3153C120.851 36.3153 120.851 36.3153 120.828 36.4006C120.828 36.4006 120.828 36.4005 120.806 36.4858C120.806 36.4858 120.806 36.4859 120.783 36.5712C120.783 36.5712 120.783 36.5712 120.76 36.6565C120.76 36.6565 120.76 36.6565 120.737 36.7418C120.737 36.7418 120.737 36.7418 120.715 36.8271C120.715 36.8271 120.715 36.8271 120.692 36.9124C120.692 36.9124 120.692 36.9124 120.669 36.9977C120.669 36.9977 120.669 36.9977 120.647 37.083C120.647 37.083 120.647 37.083 120.624 37.1683L117.827 47.6602C117.054 50.5605 119.261 53.7082 122.712 54.6302L139.667 59.1589C143.119 60.081 146.598 58.4518 147.371 55.5516L150.122 45.2302C150.045 44.2959 150.011 44.0129 149.876 43.7027ZM136.37 24.1961L136.848 22.4048L142.736 23.9776L142.258 25.7689L136.37 24.1961ZM143.812 21.9807L136.604 20.0553C136.469 19.7452 136.357 19.3497 136.042 18.9001C135.963 18.7876 135.884 18.6752 135.805 18.5628C135.017 17.4386 133.542 16.0393 130.823 15.2218L131.096 14.1982L131.755 11.7245L146.172 15.5752L150.351 19.8896L150.169 20.572C146.953 19.9872 144.648 21.2904 143.812 21.9807ZM126.981 12.0938L127.413 10.4731L129.341 10.9883L128.909 12.6091L126.981 12.0938ZM130.712 20.1263C131.143 19.3276 131.472 18.5017 131.631 17.9046C132.194 18.2379 132.656 18.5441 132.994 18.9085C132.452 19.3118 131.684 19.7462 130.712 20.1263ZM144.665 54.2805C144.21 55.9865 142.097 56.9756 140.067 56.4333L123.113 51.9045C121.082 51.3622 119.743 49.4511 120.197 47.745L122.88 37.6796C122.88 37.6796 122.903 37.5943 123.004 37.6214C123.004 37.6214 123.027 37.5361 123.129 37.5632C123.129 37.5632 123.151 37.4779 123.253 37.505C123.253 37.505 123.253 37.505 123.276 37.4197C123.276 37.4197 123.298 37.3344 123.4 37.3615L123.524 37.3033C123.524 37.3033 123.524 37.3033 123.547 37.218L123.671 37.1599C123.694 37.0746 123.795 37.1017 123.818 37.0164C123.841 36.9311 123.942 36.9582 123.965 36.8729C123.965 36.8729 123.965 36.8729 123.988 36.7876L124.112 36.7294C124.112 36.7294 124.112 36.7294 124.236 36.6712L124.361 36.613C124.361 36.613 124.383 36.5277 124.485 36.5549L124.609 36.4967C124.609 36.4967 124.632 36.4114 124.733 36.4385L124.858 36.3803L124.982 36.3221L125.106 36.2639L125.23 36.2058L125.355 36.1476L125.479 36.0894L125.603 36.0312L125.727 35.973C125.75 35.8877 125.852 35.9149 125.874 35.8296L125.999 35.7714C126.021 35.6861 126.123 35.7132 126.146 35.6279C126.146 35.6279 126.168 35.5426 126.27 35.5697C126.394 35.5115 126.417 35.4262 126.541 35.368C126.541 35.368 126.564 35.2827 126.665 35.3099C126.688 35.2246 126.79 35.2517 126.812 35.1664L126.937 35.1082C126.959 35.0229 127.061 35.05 127.084 34.9647L127.208 34.9065C127.231 34.8212 127.332 34.8483 127.355 34.763L127.479 34.7049C127.502 34.6196 127.603 34.6467 127.626 34.5614L127.75 34.5032C127.773 34.4179 127.875 34.445 127.897 34.3597L128.022 34.3015C128.044 34.2162 128.146 34.2434 128.169 34.1581L128.293 34.0999C128.316 34.0146 128.417 34.0417 128.44 33.9564L128.564 33.8982C128.587 33.8129 128.688 33.84 128.711 33.7547L128.835 33.6965C128.858 33.6112 128.96 33.6384 128.982 33.5531C128.982 33.5531 129.005 33.4678 129.107 33.4949C129.231 33.4367 129.254 33.3514 129.378 33.2932C129.378 33.2932 129.401 33.2079 129.502 33.235C129.525 33.1497 129.626 33.1768 129.649 33.0915L129.773 33.0334C129.796 32.9481 129.898 32.9752 129.92 32.8899L130.045 32.8317C130.067 32.7464 130.169 32.7735 130.192 32.6882L130.316 32.63C130.339 32.5447 130.44 32.5718 130.463 32.4865C130.486 32.4012 130.587 32.4284 130.61 32.3431C130.633 32.2578 130.734 32.2849 130.757 32.1996C130.78 32.1143 130.881 32.1414 130.904 32.0561C130.927 31.9708 131.028 31.9979 131.051 31.9126C131.074 31.8273 131.175 31.8544 131.198 31.7691C131.221 31.6838 131.322 31.7109 131.345 31.6256C131.368 31.5403 131.469 31.5675 131.492 31.4822C131.515 31.3969 131.616 31.424 131.639 31.3387L131.763 31.2805C131.786 31.1952 131.887 31.2223 131.91 31.137C131.91 31.137 131.933 31.0517 132.034 31.0788C132.159 31.0206 132.181 30.9353 132.306 30.8772C132.306 30.8772 132.328 30.7919 132.43 30.819C132.453 30.7337 132.577 30.6755 132.577 30.6755C132.577 30.6755 132.6 30.5902 132.701 30.6173C132.724 30.532 132.825 30.5591 132.848 30.4738C132.848 30.4738 132.871 30.3885 132.972 30.4157C132.995 30.3304 133.097 30.3575 133.119 30.2722C133.142 30.1869 133.142 30.1869 133.266 30.1287C133.289 30.0434 133.391 30.0705 133.413 29.9852C133.436 29.8999 133.436 29.8999 133.56 29.8417C133.583 29.7564 133.685 29.7835 133.707 29.6982C133.73 29.6129 133.73 29.6129 133.854 29.5547C133.877 29.4694 133.979 29.4966 134.001 29.4113C134.024 29.326 134.024 29.326 134.148 29.2678C134.171 29.1825 134.273 29.2096 134.295 29.1243C134.295 29.1243 134.318 29.039 134.42 29.0661C134.442 28.9808 134.544 29.0079 134.567 28.9226C134.567 28.9226 134.589 28.8373 134.691 28.8644C134.714 28.7791 134.838 28.721 134.838 28.721L134.861 28.6357C134.883 28.5504 135.008 28.4922 135.03 28.4069C135.03 28.4069 135.03 28.4069 135.053 28.3216C135.076 28.2363 135.2 28.1781 135.223 28.0928L135.246 28.0075C135.268 27.9222 135.268 27.9222 135.393 27.864L135.415 27.7787C135.438 27.6934 135.438 27.6934 135.562 27.6352L135.585 27.5499C135.608 27.4646 135.608 27.4646 135.63 27.3793L135.653 27.294C135.676 27.2087 135.676 27.2087 135.699 27.1234L135.721 27.0381C135.744 26.9528 135.744 26.9528 135.767 26.8675L135.79 26.7822C135.812 26.6969 135.812 26.6969 135.835 26.6116L137.663 27.0998L131.956 48.5102C131.797 49.1073 132.191 49.6694 132.902 49.8592C133.612 50.0491 134.233 49.7582 134.393 49.1611L140.099 27.7506L141.926 28.2387C141.296 33.4613 146.29 42.4706 147.482 44.5252L144.868 54.3347L144.665 54.2805Z" fill="#0F85C9"/>
<path d="M122.515 10.0787C122.674 9.48162 122.28 8.91953 121.57 8.7297L117.306 7.59074C116.595 7.40091 115.974 7.69182 115.815 8.28893C115.656 8.88603 116.05 9.44814 116.76 9.63796L121.024 10.7769C121.633 10.9396 122.379 10.5905 122.515 10.0787Z" fill="url(#paint45_linear_103_3301)"/>
<path d="M114.901 8.04482C115.06 7.44771 114.666 6.88562 113.955 6.69579L113.549 6.58732C112.839 6.39749 112.217 6.6884 112.058 7.28551C111.899 7.88261 112.293 8.44472 113.004 8.63454L113.41 8.74302C114.12 8.93284 114.764 8.55662 114.901 8.04482Z" fill="url(#paint46_linear_103_3301)"/>
<path d="M123.843 6.32148L120.665 3.55392C120.125 3.1353 119.368 3.11608 118.849 3.43411C118.408 3.86456 118.452 4.51589 118.868 4.99269L122.046 7.76026C122.226 7.8998 122.406 8.03933 122.609 8.09357C123.015 8.20204 123.467 8.13992 123.862 7.88007C124.405 7.47674 124.361 6.82539 123.843 6.32148Z" fill="url(#paint47_linear_103_3301)"/>
<path d="M116.13 2.61656L116.389 2.86852C116.57 3.00805 116.75 3.14759 116.953 3.20182C117.359 3.31029 117.811 3.24816 118.206 2.98831C118.647 2.55786 118.603 1.90652 118.186 1.42973L117.927 1.17778C117.386 0.75917 116.63 0.739936 116.111 1.05797C115.568 1.4613 115.589 2.19795 116.13 2.61656Z" fill="url(#paint48_linear_103_3301)"/>
<path d="M121.079 11.7965L116.946 12.6116C116.269 12.7048 115.884 13.333 116.154 13.9533C116.266 14.3487 116.626 14.6278 117.134 14.7634C117.337 14.8176 117.563 14.7865 117.789 14.7555L121.921 13.9404C122.598 13.8472 122.983 13.219 122.714 12.5988C122.421 12.0638 121.756 11.7034 121.079 11.7965Z" fill="url(#paint49_linear_103_3301)"/>
<path d="M113.638 13.19L113.288 13.2792C112.611 13.3724 112.226 14.0006 112.496 14.6209C112.608 15.0163 112.968 15.2954 113.476 15.431C113.679 15.4852 113.905 15.4541 114.131 15.4231L114.481 15.3338C115.158 15.2406 115.543 14.6125 115.273 13.9922C115.004 13.3719 114.316 13.0968 113.638 13.19Z" fill="url(#paint50_linear_103_3301)"/>
<path d="M143.229 43.7546C143.229 43.7546 143.252 43.6693 143.353 43.6964C143.353 43.6964 143.353 43.6964 143.274 43.584C143.252 43.6693 143.252 43.6693 143.229 43.7546Z" fill="url(#paint51_linear_103_3301)"/>
<path d="M138.88 45.791C138.778 45.7638 138.778 45.7638 138.88 45.791C138.756 45.8491 138.756 45.8491 138.88 45.791Z" fill="url(#paint52_linear_103_3301)"/>
<path d="M143.452 56.7893C143.351 56.7622 143.328 56.8475 143.328 56.8475C143.328 56.8475 143.43 56.8746 143.452 56.7893Z" fill="url(#paint53_linear_103_3301)"/>
<path d="M130.803 43.4509L130.905 43.478L130.928 43.3927C130.826 43.3656 130.826 43.3656 130.803 43.4509Z" fill="url(#paint54_linear_103_3301)"/>
<path d="M138.88 45.791C138.756 45.8491 138.756 45.8491 138.88 45.791C138.857 45.8763 138.857 45.8763 138.88 45.791Z" fill="url(#paint55_linear_103_3301)"/>
<path d="M137.434 52.4406L136.949 52.2195C137.152 52.2738 137.231 52.3863 137.434 52.4406Z" fill="url(#paint56_linear_103_3301)"/>
<path d="M67.1897 76.7341C66.3078 76.7341 65.4858 76.5851 64.7236 76.2872C63.9724 75.9778 63.3191 75.5423 62.7638 74.9808C62.2085 74.4193 61.773 73.7604 61.4573 73.004C61.1524 72.2477 61 71.4169 61 70.5116C61 69.6063 61.1524 68.7755 61.4573 68.0192C61.773 67.2629 62.2085 66.604 62.7638 66.0425C63.33 65.481 63.9887 65.0512 64.74 64.7533C65.4912 64.4439 66.3132 64.2892 67.206 64.2892C68.1968 64.2892 69.0896 64.4725 69.8844 64.8392C70.6901 65.1945 71.3652 65.7216 71.9096 66.4206L70.2111 68.0708C69.8191 67.6009 69.3836 67.2514 68.9045 67.0222C68.4255 66.7816 67.9029 66.6613 67.3367 66.6613C66.8032 66.6613 66.3132 66.7529 65.8668 66.9363C65.4204 67.1196 65.0339 67.3832 64.7073 67.727C64.3807 68.0708 64.1248 68.4776 63.9397 68.9474C63.7655 69.4173 63.6784 69.9387 63.6784 70.5116C63.6784 71.0846 63.7655 71.606 63.9397 72.0758C64.1248 72.5457 64.3807 72.9525 64.7073 73.2963C65.0339 73.64 65.4204 73.9036 65.8668 74.087C66.3132 74.2703 66.8032 74.362 67.3367 74.362C67.9029 74.362 68.4255 74.2474 68.9045 74.0182C69.3836 73.7776 69.8191 73.4166 70.2111 72.9353L71.9096 74.5854C71.3652 75.2845 70.6901 75.8173 69.8844 76.184C69.0896 76.5507 68.1914 76.7341 67.1897 76.7341Z" fill="#0F85C9"/>
<path d="M73.5166 76.5278V63.7735H76.0643V76.5278H73.5166Z" fill="#0F85C9"/>
<path d="M82.7894 76.6653C81.7877 76.6653 80.9058 76.4591 80.1436 76.0465C79.3924 75.634 78.8099 75.0725 78.3962 74.362C77.9824 73.64 77.7756 72.8207 77.7756 71.9039C77.7756 70.9757 77.977 70.1564 78.3798 69.4459C78.7936 68.724 79.3543 68.1625 80.062 67.7614C80.7697 67.3488 81.5699 67.1426 82.4627 67.1426C83.3229 67.1426 84.0959 67.3374 84.7818 67.727C85.4787 68.1052 86.0285 68.6552 86.4313 69.3771C86.8342 70.0876 87.0356 70.9414 87.0356 71.9383C87.0356 72.0415 87.0302 72.1618 87.0193 72.2993C87.0084 72.4253 86.9975 72.5457 86.9866 72.6603H79.8497V71.0961H85.6474L84.6675 71.5602C84.6675 71.0789 84.575 70.6606 84.3899 70.3054C84.2048 69.9501 83.9489 69.6751 83.6223 69.4803C83.2957 69.274 82.9146 69.1709 82.4791 69.1709C82.0436 69.1709 81.657 69.274 81.3195 69.4803C80.9929 69.6751 80.737 69.9558 80.5519 70.3225C80.3668 70.6778 80.2743 71.1018 80.2743 71.5945V72.0071C80.2743 72.5113 80.3777 72.9582 80.5846 73.3478C80.8024 73.726 81.1018 74.0182 81.4828 74.2245C81.8748 74.4193 82.3321 74.5167 82.8547 74.5167C83.3229 74.5167 83.7312 74.4422 84.0796 74.2932C84.4389 74.1443 84.7655 73.9208 85.0595 73.6229L86.415 75.1699C86.0122 75.6512 85.5059 76.0236 84.8962 76.2872C84.2864 76.5393 83.5842 76.6653 82.7894 76.6653Z" fill="#0F85C9"/>
<path d="M93.882 76.5278V74.723L93.7187 74.3276V71.0961C93.7187 70.5231 93.5499 70.0762 93.2124 69.7553C92.8858 69.4344 92.3795 69.274 91.6936 69.274C91.2254 69.274 90.7627 69.3542 90.3054 69.5147C89.859 69.6636 89.4779 69.8699 89.1622 70.1335L88.2476 68.2599C88.7267 67.9046 89.3037 67.6296 89.9788 67.4348C90.6538 67.24 91.3397 67.1426 92.0365 67.1426C93.3757 67.1426 94.4155 67.4749 95.1559 68.1395C95.8963 68.8042 96.2664 69.8413 96.2664 71.2508V76.5278H93.882ZM91.2036 76.6653C90.5177 76.6653 89.9298 76.545 89.4398 76.3043C88.9499 76.0522 88.5742 75.7142 88.3129 75.2902C88.0516 74.8662 87.921 74.3906 87.921 73.8635C87.921 73.3134 88.0462 72.8322 88.2966 72.4196C88.5579 72.0071 88.9662 71.6862 89.5215 71.457C90.0767 71.2164 90.8008 71.0961 91.6936 71.0961H94.029V72.6603H91.9712C91.3724 72.6603 90.9587 72.7634 90.73 72.9697C90.5123 73.1759 90.4034 73.4338 90.4034 73.7432C90.4034 74.087 90.5286 74.362 90.779 74.5683C91.0403 74.7631 91.3942 74.8605 91.8406 74.8605C92.2652 74.8605 92.6463 74.7573 92.9838 74.5511C93.3213 74.3333 93.5663 74.0182 93.7187 73.6057L94.1107 74.8433C93.9256 75.4392 93.5881 75.8918 93.0981 76.2012C92.6082 76.5106 91.9767 76.6653 91.2036 76.6653Z" fill="#0F85C9"/>
<path d="M103.913 67.1426C104.61 67.1426 105.23 67.2915 105.775 67.5895C106.33 67.876 106.765 68.3229 107.081 68.9302C107.397 69.5261 107.555 70.2939 107.555 71.2336V76.5278H105.007V71.6461C105.007 70.9012 104.849 70.3512 104.533 69.996C104.228 69.6407 103.793 69.4631 103.227 69.4631C102.824 69.4631 102.459 69.5548 102.133 69.7381C101.817 69.91 101.566 70.1793 101.381 70.546C101.207 70.9127 101.12 71.3825 101.12 71.9555V76.5278H98.5723V67.2801H101.006V69.8413L100.548 69.0677C100.864 68.4489 101.316 67.9734 101.904 67.6411C102.492 67.3087 103.161 67.1426 103.913 67.1426Z" fill="#0F85C9"/>
<path d="M109.864 76.5278V67.2801H112.412V76.5278H109.864ZM111.138 65.9909C110.67 65.9909 110.289 65.8477 109.995 65.5612C109.701 65.2747 109.554 64.9194 109.554 64.4955C109.554 64.0715 109.701 63.7162 109.995 63.4297C110.289 63.1432 110.67 63 111.138 63C111.606 63 111.987 63.1375 112.281 63.4125C112.575 63.6761 112.722 64.0199 112.722 64.4439C112.722 64.8908 112.575 65.2632 112.281 65.5612C111.998 65.8477 111.617 65.9909 111.138 65.9909Z" fill="#0F85C9"/>
<path d="M120.117 67.1426C120.814 67.1426 121.434 67.2915 121.979 67.5895C122.534 67.876 122.969 68.3229 123.285 68.9302C123.601 69.5261 123.759 70.2939 123.759 71.2336V76.5278H121.211V71.6461C121.211 70.9012 121.053 70.3512 120.737 69.996C120.433 69.6407 119.997 69.4631 119.431 69.4631C119.028 69.4631 118.663 69.5548 118.337 69.7381C118.021 69.91 117.77 70.1793 117.585 70.546C117.411 70.9127 117.324 71.3825 117.324 71.9555V76.5278H114.776V67.2801H117.21V69.8413L116.752 69.0677C117.068 68.4489 117.52 67.9734 118.108 67.6411C118.696 67.3087 119.366 67.1426 120.117 67.1426Z" fill="#0F85C9"/>
<path d="M130.264 80C129.436 80 128.636 79.8911 127.863 79.6734C127.101 79.4671 126.464 79.152 125.952 78.728L126.965 76.8028C127.335 77.1237 127.803 77.3758 128.369 77.5592C128.946 77.754 129.513 77.8514 130.068 77.8514C130.972 77.8514 131.625 77.6394 132.028 77.2154C132.441 76.7914 132.648 76.1611 132.648 75.3246V73.9323L132.812 71.6117L132.779 69.274V67.2801H135.196V74.9808C135.196 76.6997 134.771 77.966 133.922 78.7796C133.073 79.5932 131.853 80 130.264 80ZM129.872 76.0809C129.055 76.0809 128.315 75.8975 127.651 75.5308C126.998 75.1527 126.469 74.6313 126.067 73.9666C125.675 73.2905 125.479 72.5056 125.479 71.6117C125.479 70.7064 125.675 69.9215 126.067 69.2568C126.469 68.5807 126.998 68.0593 127.651 67.6926C128.315 67.3259 129.055 67.1426 129.872 67.1426C130.612 67.1426 131.266 67.303 131.832 67.6239C132.398 67.9333 132.839 68.4203 133.155 69.0849C133.47 69.7381 133.628 70.5804 133.628 71.6117C133.628 72.6316 133.47 73.4739 133.155 74.1385C132.839 74.7917 132.398 75.2787 131.832 75.5996C131.266 75.9205 130.612 76.0809 129.872 76.0809ZM130.378 73.8807C130.825 73.8807 131.222 73.789 131.57 73.6057C131.919 73.4109 132.191 73.1416 132.387 72.7978C132.583 72.454 132.681 72.0586 132.681 71.6117C132.681 71.1534 132.583 70.758 132.387 70.4257C132.191 70.0819 131.919 69.8183 131.57 69.635C131.222 69.4402 130.825 69.3428 130.378 69.3428C129.932 69.3428 129.534 69.4402 129.186 69.635C128.838 69.8183 128.56 70.0819 128.353 70.4257C128.157 70.758 128.059 71.1534 128.059 71.6117C128.059 72.0586 128.157 72.454 128.353 72.7978C128.56 73.1416 128.838 73.4109 129.186 73.6057C129.534 73.789 129.932 73.8807 130.378 73.8807Z" fill="#0F85C9"/>
<path d="M146.128 76.7341C145.214 76.7341 144.337 76.608 143.499 76.3559C142.661 76.0923 141.986 75.7543 141.474 75.3418L142.372 73.2447C142.862 73.6114 143.439 73.9151 144.103 74.1557C144.778 74.3849 145.459 74.4995 146.145 74.4995C146.667 74.4995 147.087 74.4479 147.402 74.3448C147.729 74.2302 147.968 74.0755 148.121 73.8807C148.273 73.6859 148.35 73.4624 148.35 73.2103C148.35 72.8895 148.23 72.6373 147.99 72.454C147.751 72.2592 147.435 72.1045 147.043 71.9899C146.651 71.8638 146.216 71.7492 145.736 71.6461C145.268 71.5315 144.795 71.394 144.316 71.2336C143.847 71.0731 143.417 70.8669 143.025 70.6148C142.633 70.3627 142.312 70.0303 142.062 69.6178C141.822 69.2053 141.703 68.6781 141.703 68.0364C141.703 67.3488 141.877 66.7243 142.225 66.1628C142.584 65.5898 143.118 65.1372 143.826 64.8049C144.544 64.4611 145.442 64.2892 146.52 64.2892C147.239 64.2892 147.947 64.3809 148.643 64.5642C149.34 64.7361 149.955 64.9997 150.489 65.3549L149.672 67.4692C149.139 67.1483 148.605 66.9134 148.072 66.7644C147.538 66.604 147.016 66.5238 146.504 66.5238C145.992 66.5238 145.573 66.5868 145.247 66.7128C144.92 66.8389 144.686 67.0051 144.544 67.2113C144.403 67.4061 144.332 67.6353 144.332 67.8989C144.332 68.2083 144.452 68.4604 144.691 68.6552C144.931 68.8386 145.247 68.9875 145.638 69.1021C146.03 69.2167 146.46 69.3313 146.929 69.4459C147.408 69.5605 147.881 69.6923 148.35 69.8413C148.829 69.9902 149.264 70.1908 149.656 70.4429C150.048 70.695 150.364 71.0273 150.603 71.4398C150.854 71.8524 150.979 72.3738 150.979 73.004C150.979 73.6801 150.799 74.299 150.44 74.8605C150.081 75.422 149.542 75.8746 148.823 76.2184C148.115 76.5622 147.217 76.7341 146.128 76.7341Z" fill="#0F85C9"/>
<path d="M156.968 76.6653C155.966 76.6653 155.084 76.4591 154.322 76.0465C153.571 75.634 152.988 75.0725 152.574 74.362C152.161 73.64 151.954 72.8207 151.954 71.9039C151.954 70.9757 152.155 70.1564 152.558 69.4459C152.972 68.724 153.533 68.1625 154.24 67.7614C154.948 67.3488 155.748 67.1426 156.641 67.1426C157.501 67.1426 158.274 67.3374 158.96 67.727C159.657 68.1052 160.207 68.6552 160.61 69.3771C161.012 70.0876 161.214 70.9414 161.214 71.9383C161.214 72.0415 161.208 72.1618 161.198 72.2993C161.187 72.4253 161.176 72.5457 161.165 72.6603H154.028V71.0961H159.826L158.846 71.5602C158.846 71.0789 158.753 70.6606 158.568 70.3054C158.383 69.9501 158.127 69.6751 157.801 69.4803C157.474 69.274 157.093 69.1709 156.657 69.1709C156.222 69.1709 155.835 69.274 155.498 69.4803C155.171 69.6751 154.915 69.9558 154.73 70.3225C154.545 70.6778 154.453 71.1018 154.453 71.5945V72.0071C154.453 72.5113 154.556 72.9582 154.763 73.3478C154.981 73.726 155.28 74.0182 155.661 74.2245C156.053 74.4193 156.51 74.5167 157.033 74.5167C157.501 74.5167 157.909 74.4422 158.258 74.2932C158.617 74.1443 158.944 73.9208 159.238 73.6229L160.593 75.1699C160.19 75.6512 159.684 76.0236 159.074 76.2872C158.465 76.5393 157.762 76.6653 156.968 76.6653Z" fill="#0F85C9"/>
<path d="M162.91 76.5278V67.2801H165.344V69.8928L165.001 69.1365C165.262 68.4833 165.681 67.9906 166.258 67.6582C166.835 67.3145 167.537 67.1426 168.365 67.1426V69.6178C168.256 69.6063 168.158 69.6006 168.071 69.6006C167.984 69.5891 167.891 69.5834 167.793 69.5834C167.096 69.5834 166.53 69.7954 166.095 70.2194C165.67 70.632 165.458 71.2794 165.458 72.1618V76.5278H162.91Z" fill="#0F85C9"/>
<path d="M172.567 76.5278L168.876 67.2801H171.506L174.576 75.2386H173.269L176.454 67.2801H178.904L175.197 76.5278H172.567Z" fill="#0F85C9"/>
<path d="M179.944 76.5278V67.2801H182.491V76.5278H179.944ZM181.217 65.9909C180.749 65.9909 180.368 65.8477 180.074 65.5612C179.78 65.2747 179.633 64.9194 179.633 64.4955C179.633 64.0715 179.78 63.7162 180.074 63.4297C180.368 63.1432 180.749 63 181.217 63C181.686 63 182.067 63.1375 182.361 63.4125C182.655 63.6761 182.802 64.0199 182.802 64.4439C182.802 64.8908 182.655 65.2632 182.361 65.5612C182.078 65.8477 181.696 65.9909 181.217 65.9909Z" fill="#0F85C9"/>
<path d="M189.102 76.6653C188.155 76.6653 187.311 76.4648 186.571 76.0637C185.83 75.6512 185.248 75.0839 184.823 74.362C184.409 73.64 184.203 72.8207 184.203 71.9039C184.203 70.9757 184.409 70.1564 184.823 69.4459C185.248 68.724 185.83 68.1625 186.571 67.7614C187.311 67.3488 188.155 67.1426 189.102 67.1426C190.027 67.1426 190.833 67.3488 191.519 67.7614C192.205 68.1625 192.711 68.7412 193.038 69.4975L191.062 70.6148C190.833 70.1793 190.545 69.8584 190.196 69.6522C189.859 69.4459 189.489 69.3428 189.086 69.3428C188.65 69.3428 188.258 69.4459 187.91 69.6522C187.561 69.8584 187.284 70.1507 187.077 70.5288C186.881 70.907 186.783 71.3654 186.783 71.9039C186.783 72.4425 186.881 72.9009 187.077 73.2791C187.284 73.6572 187.561 73.9494 187.91 74.1557C188.258 74.362 188.65 74.4651 189.086 74.4651C189.489 74.4651 189.859 74.3677 190.196 74.1729C190.545 73.9666 190.833 73.64 191.062 73.1931L193.038 74.3276C192.711 75.0725 192.205 75.6512 191.519 76.0637C190.833 76.4648 190.027 76.6653 189.102 76.6653Z" fill="#0F85C9"/>
<path d="M198.754 76.6653C197.752 76.6653 196.87 76.4591 196.108 76.0465C195.357 75.634 194.774 75.0725 194.361 74.362C193.947 73.64 193.74 72.8207 193.74 71.9039C193.74 70.9757 193.941 70.1564 194.344 69.4459C194.758 68.724 195.319 68.1625 196.026 67.7614C196.734 67.3488 197.534 67.1426 198.427 67.1426C199.287 67.1426 200.06 67.3374 200.746 67.727C201.443 68.1052 201.993 68.6552 202.396 69.3771C202.799 70.0876 203 70.9414 203 71.9383C203 72.0415 202.995 72.1618 202.984 72.2993C202.973 72.4253 202.962 72.5457 202.951 72.6603H195.814V71.0961H201.612L200.632 71.5602C200.632 71.0789 200.539 70.6606 200.354 70.3054C200.169 69.9501 199.913 69.6751 199.587 69.4803C199.26 69.274 198.879 69.1709 198.443 69.1709C198.008 69.1709 197.621 69.274 197.284 69.4803C196.957 69.6751 196.701 69.9558 196.516 70.3225C196.331 70.6778 196.239 71.1018 196.239 71.5945V72.0071C196.239 72.5113 196.342 72.9582 196.549 73.3478C196.767 73.726 197.066 74.0182 197.447 74.2245C197.839 74.4193 198.296 74.5167 198.819 74.5167C199.287 74.5167 199.696 74.4422 200.044 74.2932C200.403 74.1443 200.73 73.9208 201.024 73.6229L202.379 75.1699C201.977 75.6512 201.47 76.0236 200.861 76.2872C200.251 76.5393 199.549 76.6653 198.754 76.6653Z" fill="#0F85C9"/>
<defs>
<linearGradient id="paint0_linear_103_3301" x1="148.229" y1="46.0622" x2="149.96" y2="46.4816" gradientUnits="userSpaceOnUse">
<stop stop-color="#051343"/>
<stop offset="0.3625" stop-color="#7813A7"/>
<stop offset="0.669792" stop-color="#3222CD"/>
<stop offset="1" stop-color="#0E1982"/>
</linearGradient>
<linearGradient id="paint1_linear_103_3301" x1="146.105" y1="45.5234" x2="147.2" y2="45.7816" gradientUnits="userSpaceOnUse">
<stop stop-color="#051343"/>
<stop offset="0.3625" stop-color="#7813A7"/>
<stop offset="0.669792" stop-color="#3222CD"/>
<stop offset="1" stop-color="#0E1982"/>
</linearGradient>
<linearGradient id="paint2_linear_103_3301" x1="145.096" y1="43.3536" x2="145.736" y2="43.4957" gradientUnits="userSpaceOnUse">
<stop stop-color="#051343"/>
<stop offset="0.3625" stop-color="#7813A7"/>
<stop offset="0.669792" stop-color="#3222CD"/>
<stop offset="1" stop-color="#0E1982"/>
</linearGradient>
<linearGradient id="paint3_linear_103_3301" x1="142.157" y1="52.5116" x2="148.538" y2="54.0318" gradientUnits="userSpaceOnUse">
<stop stop-color="#051343"/>
<stop offset="0.3625" stop-color="#7813A7"/>
<stop offset="0.669792" stop-color="#3222CD"/>
<stop offset="1" stop-color="#0E1982"/>
</linearGradient>
<linearGradient id="paint4_linear_103_3301" x1="137.924" y1="48.6122" x2="140.113" y2="49.1286" gradientUnits="userSpaceOnUse">
<stop stop-color="#051343"/>
<stop offset="0.3625" stop-color="#7813A7"/>
<stop offset="0.669792" stop-color="#3222CD"/>
<stop offset="1" stop-color="#0E1982"/>
</linearGradient>
<linearGradient id="paint5_linear_103_3301" x1="127.887" y1="43.5302" x2="130.35" y2="44.1065" gradientUnits="userSpaceOnUse">
<stop stop-color="#051343"/>
<stop offset="0.3625" stop-color="#7813A7"/>
<stop offset="0.669792" stop-color="#3222CD"/>
<stop offset="1" stop-color="#0E1982"/>
</linearGradient>
<linearGradient id="paint6_linear_103_3301" x1="140.124" y1="45.957" x2="141.309" y2="46.2387" gradientUnits="userSpaceOnUse">
<stop stop-color="#051343"/>
<stop offset="0.3625" stop-color="#7813A7"/>
<stop offset="0.669792" stop-color="#3222CD"/>
<stop offset="1" stop-color="#0E1982"/>
</linearGradient>
<linearGradient id="paint7_linear_103_3301" x1="141.036" y1="55.3932" x2="147.233" y2="56.8761" gradientUnits="userSpaceOnUse">
<stop stop-color="#051343"/>
<stop offset="0.3625" stop-color="#7813A7"/>
<stop offset="0.669792" stop-color="#3222CD"/>
<stop offset="1" stop-color="#0E1982"/>
</linearGradient>
<linearGradient id="paint8_linear_103_3301" x1="139.927" y1="58.2469" x2="143.665" y2="59.1321" gradientUnits="userSpaceOnUse">
<stop stop-color="#051343"/>
<stop offset="0.3625" stop-color="#7813A7"/>
<stop offset="0.669792" stop-color="#3222CD"/>
<stop offset="1" stop-color="#0E1982"/>
</linearGradient>
<linearGradient id="paint9_linear_103_3301" x1="126.369" y1="50.3079" x2="131.656" y2="51.5691" gradientUnits="userSpaceOnUse">
<stop stop-color="#051343"/>
<stop offset="0.3625" stop-color="#7813A7"/>
<stop offset="0.669792" stop-color="#3222CD"/>
<stop offset="1" stop-color="#0E1982"/>
</linearGradient>
<linearGradient id="paint10_linear_103_3301" x1="140.156" y1="56.576" x2="145.444" y2="57.8302" gradientUnits="userSpaceOnUse">
<stop stop-color="#051343"/>
<stop offset="0.3625" stop-color="#7813A7"/>
<stop offset="0.669792" stop-color="#3222CD"/>
<stop offset="1" stop-color="#0E1982"/>
</linearGradient>
<linearGradient id="paint11_linear_103_3301" x1="138.139" y1="57.6471" x2="140.419" y2="58.1845" gradientUnits="userSpaceOnUse">
<stop stop-color="#051343"/>
<stop offset="0.3625" stop-color="#7813A7"/>
<stop offset="0.669792" stop-color="#3222CD"/>
<stop offset="1" stop-color="#0E1982"/>
</linearGradient>
<linearGradient id="paint12_linear_103_3301" x1="131.603" y1="55.6719" x2="135.523" y2="56.6042" gradientUnits="userSpaceOnUse">
<stop stop-color="#051343"/>
<stop offset="0.3625" stop-color="#7813A7"/>
<stop offset="0.669792" stop-color="#3222CD"/>
<stop offset="1" stop-color="#0E1982"/>
</linearGradient>
<linearGradient id="paint13_linear_103_3301" x1="146.867" y1="49.9049" x2="149.641" y2="50.5745" gradientUnits="userSpaceOnUse">
<stop stop-color="#051343"/>
<stop offset="0.3625" stop-color="#7813A7"/>
<stop offset="0.669792" stop-color="#3222CD"/>
<stop offset="1" stop-color="#0E1982"/>
</linearGradient>
<linearGradient id="paint14_linear_103_3301" x1="123.232" y1="52.548" x2="124.625" y2="52.8735" gradientUnits="userSpaceOnUse">
<stop stop-color="#051343"/>
<stop offset="0.3625" stop-color="#7813A7"/>
<stop offset="0.669792" stop-color="#3222CD"/>
<stop offset="1" stop-color="#0E1982"/>
</linearGradient>
<linearGradient id="paint15_linear_103_3301" x1="124.663" y1="43.9732" x2="127.49" y2="44.6419" gradientUnits="userSpaceOnUse">
<stop stop-color="#051343"/>
<stop offset="0.3625" stop-color="#7813A7"/>
<stop offset="0.669792" stop-color="#3222CD"/>
<stop offset="1" stop-color="#0E1982"/>
</linearGradient>
<linearGradient id="paint16_linear_103_3301" x1="135.183" y1="54.8276" x2="138.193" y2="55.5397" gradientUnits="userSpaceOnUse">
<stop stop-color="#051343"/>
<stop offset="0.3625" stop-color="#7813A7"/>
<stop offset="0.669792" stop-color="#3222CD"/>
<stop offset="1" stop-color="#0E1982"/>
</linearGradient>
<linearGradient id="paint17_linear_103_3301" x1="136.134" y1="51.5782" x2="138.96" y2="52.2496" gradientUnits="userSpaceOnUse">
<stop stop-color="#051343"/>
<stop offset="0.3625" stop-color="#7813A7"/>
<stop offset="0.669792" stop-color="#3222CD"/>
<stop offset="1" stop-color="#0E1982"/>
</linearGradient>
<linearGradient id="paint18_linear_103_3301" x1="125.969" y1="50.6028" x2="129.288" y2="51.3848" gradientUnits="userSpaceOnUse">
<stop stop-color="#051343"/>
<stop offset="0.3625" stop-color="#7813A7"/>
<stop offset="0.669792" stop-color="#3222CD"/>
<stop offset="1" stop-color="#0E1982"/>
</linearGradient>
<linearGradient id="paint19_linear_103_3301" x1="132.694" y1="50.9086" x2="135.337" y2="51.5393" gradientUnits="userSpaceOnUse">
<stop stop-color="#051343"/>
<stop offset="0.3625" stop-color="#7813A7"/>
<stop offset="0.669792" stop-color="#3222CD"/>
<stop offset="1" stop-color="#0E1982"/>
</linearGradient>
<linearGradient id="paint20_linear_103_3301" x1="130.64" y1="47.4439" x2="133.01" y2="48.0101" gradientUnits="userSpaceOnUse">
<stop stop-color="#051343"/>
<stop offset="0.3625" stop-color="#7813A7"/>
<stop offset="0.669792" stop-color="#3222CD"/>
<stop offset="1" stop-color="#0E1982"/>
</linearGradient>
<linearGradient id="paint21_linear_103_3301" x1="122.489" y1="48.4204" x2="124.495" y2="48.8981" gradientUnits="userSpaceOnUse">
<stop stop-color="#051343"/>
<stop offset="0.3625" stop-color="#7813A7"/>
<stop offset="0.669792" stop-color="#3222CD"/>
<stop offset="1" stop-color="#0E1982"/>
</linearGradient>
<linearGradient id="paint22_linear_103_3301" x1="148.762" y1="52.871" x2="149.089" y2="52.9535" gradientUnits="userSpaceOnUse">
<stop stop-color="#051343"/>
<stop offset="0.3625" stop-color="#7813A7"/>
<stop offset="0.669792" stop-color="#3222CD"/>
<stop offset="1" stop-color="#0E1982"/>
</linearGradient>
<linearGradient id="paint23_linear_103_3301" x1="126.009" y1="52.4369" x2="127.376" y2="52.7629" gradientUnits="userSpaceOnUse">
<stop stop-color="#051343"/>
<stop offset="0.3625" stop-color="#7813A7"/>
<stop offset="0.669792" stop-color="#3222CD"/>
<stop offset="1" stop-color="#0E1982"/>
</linearGradient>
<linearGradient id="paint24_linear_103_3301" x1="135.077" y1="47.925" x2="136.628" y2="48.2916" gradientUnits="userSpaceOnUse">
<stop stop-color="#051343"/>
<stop offset="0.3625" stop-color="#7813A7"/>
<stop offset="0.669792" stop-color="#3222CD"/>
<stop offset="1" stop-color="#0E1982"/>
</linearGradient>
<linearGradient id="paint25_linear_103_3301" x1="122.795" y1="43.7217" x2="124.252" y2="44.0739" gradientUnits="userSpaceOnUse">
<stop stop-color="#051343"/>
<stop offset="0.3625" stop-color="#7813A7"/>
<stop offset="0.669792" stop-color="#3222CD"/>
<stop offset="1" stop-color="#0E1982"/>
</linearGradient>
<linearGradient id="paint26_linear_103_3301" x1="122.074" y1="51.1736" x2="123.259" y2="51.46" gradientUnits="userSpaceOnUse">
<stop stop-color="#051343"/>
<stop offset="0.3625" stop-color="#7813A7"/>
<stop offset="0.669792" stop-color="#3222CD"/>
<stop offset="1" stop-color="#0E1982"/>
</linearGradient>
<linearGradient id="paint27_linear_103_3301" x1="135.633" y1="56.6173" x2="136.73" y2="56.8635" gradientUnits="userSpaceOnUse">
<stop stop-color="#051343"/>
<stop offset="0.3625" stop-color="#7813A7"/>
<stop offset="0.669792" stop-color="#3222CD"/>
<stop offset="1" stop-color="#0E1982"/>
</linearGradient>
<linearGradient id="paint28_linear_103_3301" x1="140.184" y1="49.9433" x2="141.233" y2="50.1891" gradientUnits="userSpaceOnUse">
<stop stop-color="#051343"/>
<stop offset="0.3625" stop-color="#7813A7"/>
<stop offset="0.669792" stop-color="#3222CD"/>
<stop offset="1" stop-color="#0E1982"/>
</linearGradient>
<linearGradient id="paint29_linear_103_3301" x1="130.257" y1="53.8434" x2="131.208" y2="54.0737" gradientUnits="userSpaceOnUse">
<stop stop-color="#051343"/>
<stop offset="0.3625" stop-color="#7813A7"/>
<stop offset="0.669792" stop-color="#3222CD"/>
<stop offset="1" stop-color="#0E1982"/>
</linearGradient>
<linearGradient id="paint30_linear_103_3301" x1="121.689" y1="49.4245" x2="122.235" y2="49.5586" gradientUnits="userSpaceOnUse">
<stop stop-color="#051343"/>
<stop offset="0.3625" stop-color="#7813A7"/>
<stop offset="0.669792" stop-color="#3222CD"/>
<stop offset="1" stop-color="#0E1982"/>
</linearGradient>
<linearGradient id="paint31_linear_103_3301" x1="125.102" y1="50.2437" x2="125.923" y2="50.4366" gradientUnits="userSpaceOnUse">
<stop stop-color="#051343"/>
<stop offset="0.3625" stop-color="#7813A7"/>
<stop offset="0.669792" stop-color="#3222CD"/>
<stop offset="1" stop-color="#0E1982"/>
</linearGradient>
<linearGradient id="paint32_linear_103_3301" x1="134.145" y1="45.2247" x2="134.783" y2="45.3769" gradientUnits="userSpaceOnUse">
<stop stop-color="#051343"/>
<stop offset="0.3625" stop-color="#7813A7"/>
<stop offset="0.669792" stop-color="#3222CD"/>
<stop offset="1" stop-color="#0E1982"/>
</linearGradient>
<linearGradient id="paint33_linear_103_3301" x1="141.302" y1="46.5553" x2="141.941" y2="46.7047" gradientUnits="userSpaceOnUse">
<stop stop-color="#051343"/>
<stop offset="0.3625" stop-color="#7813A7"/>
<stop offset="0.669792" stop-color="#3222CD"/>
<stop offset="1" stop-color="#0E1982"/>
</linearGradient>
<linearGradient id="paint34_linear_103_3301" x1="124.905" y1="45.1699" x2="125.545" y2="45.316" gradientUnits="userSpaceOnUse">
<stop stop-color="#051343"/>
<stop offset="0.3625" stop-color="#7813A7"/>
<stop offset="0.669792" stop-color="#3222CD"/>
<stop offset="1" stop-color="#0E1982"/>
</linearGradient>
<linearGradient id="paint35_linear_103_3301" x1="134.9" y1="46.0956" x2="135.324" y2="46.1976" gradientUnits="userSpaceOnUse">
<stop stop-color="#051343"/>
<stop offset="0.3625" stop-color="#7813A7"/>
<stop offset="0.669792" stop-color="#3222CD"/>
<stop offset="1" stop-color="#0E1982"/>
</linearGradient>
<linearGradient id="paint36_linear_103_3301" x1="139.869" y1="53.1172" x2="140.308" y2="53.2245" gradientUnits="userSpaceOnUse">
<stop stop-color="#051343"/>
<stop offset="0.3625" stop-color="#7813A7"/>
<stop offset="0.669792" stop-color="#3222CD"/>
<stop offset="1" stop-color="#0E1982"/>
</linearGradient>
<linearGradient id="paint37_linear_103_3301" x1="129.847" y1="52.3551" x2="130.487" y2="52.4974" gradientUnits="userSpaceOnUse">
<stop stop-color="#051343"/>
<stop offset="0.3625" stop-color="#7813A7"/>
<stop offset="0.669792" stop-color="#3222CD"/>
<stop offset="1" stop-color="#0E1982"/>
</linearGradient>
<linearGradient id="paint38_linear_103_3301" x1="127.493" y1="53.3786" x2="128.04" y2="53.5091" gradientUnits="userSpaceOnUse">
<stop stop-color="#051343"/>
<stop offset="0.3625" stop-color="#7813A7"/>
<stop offset="0.669792" stop-color="#3222CD"/>
<stop offset="1" stop-color="#0E1982"/>
</linearGradient>
<linearGradient id="paint39_linear_103_3301" x1="131.948" y1="54.9459" x2="132.313" y2="55.0312" gradientUnits="userSpaceOnUse">
<stop stop-color="#051343"/>
<stop offset="0.3625" stop-color="#7813A7"/>
<stop offset="0.669792" stop-color="#3222CD"/>
<stop offset="1" stop-color="#0E1982"/>
</linearGradient>
<linearGradient id="paint40_linear_103_3301" x1="133.467" y1="43.9467" x2="133.832" y2="44.0337" gradientUnits="userSpaceOnUse">
<stop stop-color="#051343"/>
<stop offset="0.3625" stop-color="#7813A7"/>
<stop offset="0.669792" stop-color="#3222CD"/>
<stop offset="1" stop-color="#0E1982"/>
</linearGradient>
<linearGradient id="paint41_linear_103_3301" x1="122.373" y1="45.4936" x2="122.647" y2="45.5552" gradientUnits="userSpaceOnUse">
<stop stop-color="#051343"/>
<stop offset="0.3625" stop-color="#7813A7"/>
<stop offset="0.669792" stop-color="#3222CD"/>
<stop offset="1" stop-color="#0E1982"/>
</linearGradient>
<linearGradient id="paint42_linear_103_3301" x1="145.681" y1="56.7455" x2="145.989" y2="56.8192" gradientUnits="userSpaceOnUse">
<stop stop-color="#051343"/>
<stop offset="0.3625" stop-color="#7813A7"/>
<stop offset="0.669792" stop-color="#3222CD"/>
<stop offset="1" stop-color="#0E1982"/>
</linearGradient>
<linearGradient id="paint43_linear_103_3301" x1="124.418" y1="43.9006" x2="124.6" y2="43.945" gradientUnits="userSpaceOnUse">
<stop stop-color="#051343"/>
<stop offset="0.3625" stop-color="#7813A7"/>
<stop offset="0.669792" stop-color="#3222CD"/>
<stop offset="1" stop-color="#0E1982"/>
</linearGradient>
<linearGradient id="paint44_linear_103_3301" x1="128.22" y1="53.7241" x2="128.402" y2="53.7676" gradientUnits="userSpaceOnUse">
<stop stop-color="#051343"/>
<stop offset="0.3625" stop-color="#7813A7"/>
<stop offset="0.669792" stop-color="#3222CD"/>
<stop offset="1" stop-color="#0E1982"/>
</linearGradient>
<linearGradient id="paint45_linear_103_3301" x1="116.151" y1="10.2119" x2="122.207" y2="11.3602" gradientUnits="userSpaceOnUse">
<stop stop-color="#051343"/>
<stop offset="0.3625" stop-color="#7813A7"/>
<stop offset="0.669792" stop-color="#3222CD"/>
<stop offset="1" stop-color="#0E1982"/>
</linearGradient>
<linearGradient id="paint46_linear_103_3301" x1="111.938" y1="9.08665" x2="114.49" y2="9.68266" gradientUnits="userSpaceOnUse">
<stop stop-color="#051343"/>
<stop offset="0.3625" stop-color="#7813A7"/>
<stop offset="0.669792" stop-color="#3222CD"/>
<stop offset="1" stop-color="#0E1982"/>
</linearGradient>
<linearGradient id="paint47_linear_103_3301" x1="118.175" y1="8.30312" x2="123.694" y2="9.56627" gradientUnits="userSpaceOnUse">
<stop stop-color="#051343"/>
<stop offset="0.3625" stop-color="#7813A7"/>
<stop offset="0.669792" stop-color="#3222CD"/>
<stop offset="1" stop-color="#0E1982"/>
</linearGradient>
<linearGradient id="paint48_linear_103_3301" x1="115.55" y1="3.63779" x2="118.054" y2="4.2314" gradientUnits="userSpaceOnUse">
<stop stop-color="#051343"/>
<stop offset="0.3625" stop-color="#7813A7"/>
<stop offset="0.669792" stop-color="#3222CD"/>
<stop offset="1" stop-color="#0E1982"/>
</linearGradient>
<linearGradient id="paint49_linear_103_3301" x1="116.193" y1="15.906" x2="121.774" y2="17.181" gradientUnits="userSpaceOnUse">
<stop stop-color="#051343"/>
<stop offset="0.3625" stop-color="#7813A7"/>
<stop offset="0.669792" stop-color="#3222CD"/>
<stop offset="1" stop-color="#0E1982"/>
</linearGradient>
<linearGradient id="paint50_linear_103_3301" x1="112.283" y1="15.9299" x2="114.848" y2="16.5369" gradientUnits="userSpaceOnUse">
<stop stop-color="#051343"/>
<stop offset="0.3625" stop-color="#7813A7"/>
<stop offset="0.669792" stop-color="#3222CD"/>
<stop offset="1" stop-color="#0E1982"/>
</linearGradient>
<linearGradient id="paint51_linear_103_3301" x1="143.226" y1="43.8151" x2="143.316" y2="43.838" gradientUnits="userSpaceOnUse">
<stop stop-color="#051343"/>
<stop offset="0.3625" stop-color="#7813A7"/>
<stop offset="0.669792" stop-color="#3222CD"/>
<stop offset="1" stop-color="#0E1982"/>
</linearGradient>
<linearGradient id="paint52_linear_103_3301" x1="138.79" y1="45.8585" x2="138.858" y2="45.8748" gradientUnits="userSpaceOnUse">
<stop stop-color="#051343"/>
<stop offset="0.3625" stop-color="#7813A7"/>
<stop offset="0.669792" stop-color="#3222CD"/>
<stop offset="1" stop-color="#0E1982"/>
</linearGradient>
<linearGradient id="paint53_linear_103_3301" x1="143.329" y1="56.8921" x2="143.42" y2="56.9146" gradientUnits="userSpaceOnUse">
<stop stop-color="#051343"/>
<stop offset="0.3625" stop-color="#7813A7"/>
<stop offset="0.669792" stop-color="#3222CD"/>
<stop offset="1" stop-color="#0E1982"/>
</linearGradient>
<linearGradient id="paint54_linear_103_3301" x1="130.768" y1="43.4721" x2="130.9" y2="43.5019" gradientUnits="userSpaceOnUse">
<stop stop-color="#051343"/>
<stop offset="0.3625" stop-color="#7813A7"/>
<stop offset="0.669792" stop-color="#3222CD"/>
<stop offset="1" stop-color="#0E1982"/>
</linearGradient>
<linearGradient id="paint55_linear_103_3301" x1="138.79" y1="45.8585" x2="138.858" y2="45.8748" gradientUnits="userSpaceOnUse">
<stop stop-color="#051343"/>
<stop offset="0.3625" stop-color="#7813A7"/>
<stop offset="0.669792" stop-color="#3222CD"/>
<stop offset="1" stop-color="#0E1982"/>
</linearGradient>
<linearGradient id="paint56_linear_103_3301" x1="136.979" y1="52.3496" x2="137.439" y2="52.4089" gradientUnits="userSpaceOnUse">
<stop stop-color="#051343"/>
<stop offset="0.3625" stop-color="#7813A7"/>
<stop offset="0.669792" stop-color="#3222CD"/>
<stop offset="1" stop-color="#0E1982"/>
</linearGradient>
</defs>
</svg>
